<?xml version="1.0" encoding="UTF-8"?>
<svg id="Layer_1" data-name="Layer 1" xmlns="http://www.w3.org/2000/svg" viewBox="0 0 1887 1533">
  <defs>
    <style>
      .cls-1 {
        fill: #fff;
      }

      .cls-2 {
        fill: #042043;
      }
    </style>
  </defs>
  <g>
    <path class="cls-2" d="M0,0h1887v1533H0V0ZM1536.02456,764.47853c0-326.91674-265.01838-591.93513-591.93513-591.93513S352.15431,437.56179,352.15431,764.47853c0,326.91674,265.01838,591.93513,591.93513,591.93513s591.93513-265.01838,591.93513-591.93513Z"/>
    <g>
      <path class="cls-1" d="M1536.02456,764.47853c0,326.91674-265.01838,591.93513-591.93513,591.93513s-591.93513-265.01838-591.93513-591.93513c0-326.91674,265.01838-591.93513,591.93513-591.93513s591.93513,265.01838,591.93513,591.93513ZM1510.18653,764.6188c0-312.64031-253.44505-566.08536-566.08536-566.08536S378.0158,451.97849,378.0158,764.6188s253.44505,566.08536,566.08536,566.08536,566.08536-253.44505,566.08536-566.08536Z"/>
      <path class="cls-2" d="M1510.18653,764.6188c0,312.64031-253.44505,566.08536-566.08536,566.08536s-566.08536-253.44505-566.08536-566.08536S631.46085,198.53343,944.10116,198.53343s566.08536,253.44505,566.08536,566.08536ZM892.96802,309.15684c7.47397-6.80075,15.58889-12.04844,24.67326-16.43295,18.59316-8.97385,38.08449-8.40667,56.1433,1.36842,12.99236,7.03266,23.05826,15.25938,33.09808,26.03702,4.92539,5.28736,9.58768,10.52402,13.81407,16.3178l11.40708,15.63751c5.84639,8.01459,11.26311,15.97642,16.22931,24.60645l17.57966,30.5491,11.88831,22.11705,15.9985,30.99987,16.34061,31.5657,34.76953,64.38827c10.53365,19.50684,21.26641,37.91268,33.7292,56.21974l28.2676,41.52333c1.20427,1.769,3.23746,3.84469,4.62892,5.59383,7.86777,9.89026,15.42495,19.53697,24.11166,28.6714l7.37635,7.75653c14.88276,15.64983,30.59193,30.14402,48.56115,42.15061l12.63959,8.44546c17.69002,11.82003,39.5611,22.35752,59.66127,29.41637l11.89277,4.17655c23.17813,8.13978,56.49675,11.97482,81.07053,13.64981,1.32614.09039,3.95183-1.87561,3.946-2.96284l-.06104-11.38209c-.0306-5.70658-11.00844-5.63398-17.67539-6.24828-40.71126-3.75118-83.12397-16.62935-118.30481-37.01781-3.21647-1.86405-6.39228-3.59218-9.41347-5.6826l-16.45823-11.38777c-7.61536-5.26921-16.56685-12.54466-23.22738-18.88703l-15.40035-14.66471c-12.54726-11.9479-35.43637-40.35135-45.89744-55.02653-11.90777-16.70467-22.92288-33.13669-33.1368-50.88104l-15.38589-26.72945-17.07129-30.84488-14.31101-26.75341-20.87863-40.06086-28.96802-55.07793-8.10137-14.7645c-2.94976-5.37585-6.00784-10.5271-9.27245-15.76076l-13.02197-20.87621c-15.94078-25.5555-38.87566-53.41675-64.54142-69.54483-7.61234-4.78351-15.48779-8.16108-24.00246-10.82183-29.47864-9.21177-59.70065,2.8353-82.12934,21.96425-7.57989,6.46472-17.14749,15.17498-23.217,22.74959l-10.6822,13.33115c-7.25402,9.05285-13.50631,18.52139-19.57668,28.46242l-15.82152,25.90983-12.92219,23.42608-5.79889,10.94271-5.8886,11.12356-7.40655,14.59002-9.39377,18.56824-17.65479,33.68755-8.98746,17.13179c-18.31787,34.91732-46.2414,85.14178-69.15497,116.43518l-9.40831,12.84907c-2.04447,2.79216-3.97831,5.99207-6.19097,8.65405l-24.53869,29.52172c-5.68245,6.83638-12.04186,12.448-18.51559,18.49848-10.55736,9.86714-21.21608,18.75601-33.05736,27.04556-8.14641,5.70294-16.16128,11.14231-25.03787,15.63978l-17.32256,8.77676c-19.14607,9.70067-60.07973,21.34668-81.52512,23.62478l-19.27581,2.04763c-4.05532.43079-14.19449.35956-14.15121,5.52239l.09228,11.00832c.01725,2.05814,2.65412,3.90834,4.87032,3.7972,32.14524-1.61203,62.13412-7.08843,92.24975-17.66351,13.81655-4.85167,18.36111-6.5642,31.46609-13.29026,14.08901-7.23112,27.22164-14.74347,40.10117-24.02923,23.74853-17.122,47.24596-39.55997,66.22749-61.83186,6.92986-8.13112,13.03197-16.26106,19.40177-24.66311l4.29469-5.66489c5.09484-6.72032,9.61493-13.5417,14.24989-20.64281l15.40376-23.59969,7.73462-12.45832c8.48127-13.66097,16.29231-26.90654,23.83571-41.16469l34.9537-66.06777,28.98283-56.06926,10.078-18.62739,5.72475-10.47572,6.89939-12.04859c4.38638-7.66005,8.84873-14.90617,13.84344-22.15672l13.84599-20.09948c8.85011-12.84722,19.17659-23.64777,30.7045-34.13732ZM1254.15148,827.90498c-.72342.0001-2.08676-.22452-2.08683-.61785l-.00041-2.33988.13298-78.89116c.00123-.72762-1.89839-2.62685-2.64582-2.62185l-46.91203.31379.15652,7.49848.00412,78.37715-14.69533-.47647-.15756-120.03571-.33772-14.81897-5.66192-.27634c-.67666-.03303-2.20827-1.30221-2.22307-2.14906l-.18119-10.36823c-1.96561-.15763-3.72595-.31395-5.52213-.30759l-35.03167.12403-.10446,12.60057-5.92449-.57839c-.65731-.06417-2.21388.11556-2.40053.62698-.12434.34069-.25087,1.39731-.25049,2.13369l.06917,133.78743-13.25669-.13305.11917-105.7568-.00796-123.44283-12.18441-.48917c-.74016-.02971-2.55869-1.4766-2.56416-2.15758l-.26405-32.8742c-.01235-1.53722-.77954-3.43274-1.68633-3.81899-.91511-.38979-3.64571.56533-3.6456,1.8652l.0029,36.93507-14.7823.27099c-.77255.01416-2.3175-1.6356-2.31733-2.31438l.00838-33.87525c.00024-.96116-1.58439-2.66022-2.38445-2.44059l-3.03697.83369-.18937,37.46219-12.33104.29591c-.5693.01366-2.05841.17192-2.05821.6419l.00101,2.39426.07186,212.50287-.24578,13.90764-15.59347-.00907-.16909-161.51807-.10254-20.44598c.04924.0147-1.10423-.32561-1.50924-.43898l-10.85516,5.41694-30.71898,17.6714-10.58451,5.87151c-1.93527,1.07355-3.22317,3.12544-3.22018,5.87515l.16102,147.88451-12.71265-.0543-.4415-4.89732-4.06887-37.17302-11.00464-139.74194-1.75484-37.17097-1.59623-48.86931-.36696-14.68352c6.88741.66318,13.09495-1.08485,18.44371-4.60192l-.52325-11.17044c3.22207-1.27185,4.95487-3.62382,4.78209-6.58179l-.85145-14.57678-7.42874-3.66325-1.44575-5.66887c-3.17672-.64578-4.2764-2.55897-4.77974-5.53208l-9.19755-3.46559c-1.57546-.59363-1.99335-5.42854-1.99235-7.4707l.02481-50.67839c.00131-2.66864-.11149-5.56037,1.59833-7.13918,2.36215-2.18116,2.45319-4.93755.77807-7.37868l-4.56534-6.65303-.40074-42.32335-2.25024-4.82998-.32913-44.34554c-.0028-.37726-.82985-2.14495-1.16549-2.12362l-3.80524.24183c-.79991.05084-.60915,2.47305-.61036,3.50687l-.05026,42.86636-2.89092,3.53446-.52281,44.22177-4.90545,5.73183c-1.36102,1.5903-.84013,5.2118.70899,6.77417,1.91131,1.92765,2.74768,4.24759,2.70517,6.87542l-.9061,56.01756c-.12226,7.55864-9.49276,4.01227-10.96066,7.37372-.54897,1.25713-1.0659,3.60578-1.98495,4.02511-6.16719,1.78809-2.14109,6.36315-5.78862,7.47177-1.33287.40511-4.71878,1.90378-4.97721,3.3716-.89319,5.07318-.80304,12.50412-.03588,17.46139,6.28031,2.68677,3.18635,6.74162,2.81572,12.44858,1.86094,3.99968,12.81407,7.5581,18.52209,6.91431l-7.16098,137.83866-4.13714,57.18399-6.83463,73.8522-1.27947,12.902-14.51418.05086-.12856-103.24023-39.86285.22892-.06865-28.89169.19404-63.78171-23.58195-20.75179-18.73253-16.44085c-.68817-.17681-1.32048-.42209-1.62297-.09886-.20062.21438-.3535,1.39902-.35317,2.46586l.05826,190.22844.13555,40.33626-16.56152-.5216-.08163-147.03933-40.06118-.30796-.03313,145.97221c-.51262.91478-1.62878,2.19507-1.88676,2.15503l-14.60834-.38952.07891-66.74711-.14988-39.1887-44.978.01472.02469,70.64836-16.9781.08472-.17647-24.72418c-.00418-.58548-.28108-2.2517-.81731-2.33535l-1.91875-.2993-39.85627-.06418-.18315,60.8145-185.82098-.15134-16.77896-.0383.3096,19.52172c2.34377.82407,4.50613,1.54314,7.55611,1.54298l388.69393-.021,262.95263-.03408,223.91397.01057,85.1195.03223,51.49153-.26935c.69818-2.09215,1.24099-4.51013,1.15365-6.25105l-.73099-14.57007-27.0634.11117-173.66917.02406ZM706.29883,1066.39709c10.81114-13.59587,13.41585-30.17428,10.18559-46.93542-3.0571-15.86265-17.05067-31.15354-30.60246-38.3724l-13.70768-7.3019-9.90821-4.87587c-13.19242-6.49204-20.00058-7.75156-30.74399-19.36948-6.0235-6.51381-7.4661-15.12013-5.56445-23.41875,2.81005-12.2628,12.60737-20.13878,24.98893-21.25499,26.20344-2.36225,37.44431,17.3865,45.40666,38.93688l11.63457-2.08058c-.45423-6.07422-1.10133-10.94503-2.0619-16.73931l-3.85314-23.24266c-.40485-2.4421-2.22755-4.37177-4.6868-5.10266-27.21996-8.08983-54.49928-10.09526-80.22288,3.47113-6.75538,3.56273-12.47571,7.77881-17.43434,13.67044-19.53752,23.21363-17.40004,54.64174,6.47126,75.01731,6.46742,5.52033,13.58008,9.74179,21.05352,13.75152l8.45144,4.53445c14.46149,7.75903,20.84611,9.47343,32.55684,20.62418,9.73796,9.27231,11.44712,23.18386,5.35527,35.09462-3.26628,6.38621-8.8984,11.85085-16.30872,13.57974-6.44978,1.50479-13.98634,1.62235-20.47828-.28352-22.68666-6.66023-33.25937-26.7924-41.61237-47.66108l-14.43869,1.69431,5.04506,29.14712c1.26963,7.3351,3.17944,14.26588,5.27166,21.28096,36.00611,16.87618,88.35219,19.60309,115.20311-14.16407ZM1088.0557,1050.0996c7.10042-20.7053,1.01923-43.4452-14.76769-58.27645-6.01187-5.64793-12.34236-9.77186-19.54825-13.46215l-13.87704-7.10672c-14.47034-7.41056-24.27603-10.04488-35.95092-22.02777-10.28366-10.55496-7.31001-32.16116,6.26794-40.22189,13.66757-8.11394,33.48552-4.55631,43.85353,8.88252,6.33316,8.20893,10.23323,17.13711,13.79308,27.14456l10.82255-2.04082c.66452-.12531,1.97109-2.4163,1.7797-3.4982l-6.61405-37.38731c-.36801-2.08024-1.92934-4.82428-3.49186-5.19349l-16.38423-3.87146c-26.77034-6.32561-60.10262-2.1128-79.5996,18.23198-17.50905,18.2704-19.89064,46.20831-5.41414,66.82981,5.75164,8.19311,13.52591,14.05707,22.10983,18.95989l12.05664,6.8863,19.26871,9.81901c8.24517,4.2016,19.41872,11.95827,23.54023,20.2989,4.86581,9.84687,4.79721,22.92535-1.71753,32.0769-10.191,14.31574-32.20216,13.7285-46.20903,4.79441-15.85247-10.11128-23.29286-25.73733-30.27593-43.08759l-13.47273,2.54041,3.58803,24.8606c1.20407,8.34271,3.02016,16.37249,5.12871,24.8489,14.78523,7.76756,30.42463,11.11654,47.08581,12.2671,31.48806,2.17445,67.21199-10.72651,78.02826-42.26745ZM874.39685,1017.59018c1.37099,7.07312,1.45983,13.82547,1.259,20.39761l-.73544,24.06723c-.15066,4.93053-2.86582,10.44836-7.77607,12.15129-13.94357,4.83579-28.59863,3.12441-41.43724-3.76482-6.16632-3.30887-12.45118-6.78307-17.02108-12.12713-22.18764-25.9463-26.7882-64.74896-19.69493-97.30031,3.68857-16.92703,13.82795-34.14343,28.09399-43.75376,10.62133-7.15507,22.09227-10.29862,34.93231-10.78171,29.2757-1.10147,48.10046,16.9232,54.90572,44.39022,4.31602-.00245,7.89969-.61214,11.89556-2.27504l-3.56244-45.56443c-.0998-1.27651-2.90972-2.76238-4.1719-3.12103-25.60919-7.27693-38.88983-10.38206-66.13584-8.76528-26.1714,1.55301-53.27548,10.24266-73.19368,27.75023-27.69542,24.34354-38.81029,57.95501-31.94492,94.24684,7.53327,39.82245,36.45304,64.6553,74.48445,74.45401,14.57864,3.75615,28.6681,5.35552,43.80843,4.07647,11.89449-1.00485,23.7275-2.41833,35.21338-5.38105l25.92926-6.68833-1.04281-37.60855c-.19922-7.18486.17344-14.04337.42043-21.30075.15844-4.65555,3.48646-10.78672,8.46068-11.35086l9.3502-1.06043.92724-12.2666-89.99521.02269.44111,12.06851,15.00059,1.35162c3.89319.35079,10.66255,3.35243,11.58924,8.13337ZM1239.01065,897.38014l.44204,10.43898,11.51734,1.38146c5.88449.70582,11.61521,4.19843,13.94866,9.75815,3.1084,7.40614,4.66999,15.3613,4.66744,23.43801l-.01717,54.40375c-.00701,22.20049-2.78409,42.50723-16.73199,59.86418-12.11486,15.07591-32.02643,16.57095-49.25055,10.76627-10.37293-3.49577-17.93301-10.7266-22.31875-20.76884-4.76555-10.9119-7.03464-22.39386-7.10343-34.67261l-.43665-77.93657c-.02389-4.26451.322-8.66453.71173-12.53632.77591-7.70819,7.06158-12.15194,14.05322-12.88074l8.50795-.88687-.08858-11.85854-14.0354.05017-72.90923-.01883c-1.12484-.00029-3.19412,1.87853-3.08343,2.88858l.97253,8.87452,13.30908,2.28656c5.76599.99062,8.39453,11.63365,8.38986,18.03006l-.06176,84.55575c-.01792,24.52978,5.28775,48.75809,25.70375,64.20948,12.73682,9.63957,27.83306,14.27419,43.80236,15.32864,14.53145.95951,28.69694.27276,42.25701-4.98114,10.58808-4.10239,20.09216-10.62229,27.58286-19.16846,16.49227-18.8161,19.59327-48.70775,19.64576-72.9808l.12968-59.96617c.01011-4.67328,1.00215-9.76096,2.15227-14.07366,1.92163-7.20568,7.87022-11.19067,14.80534-12.46683l6.71431-1.23553c.63773-4.2292,1.74052-7.80485-.54563-11.26331l-70.1199-.00925c-1.13804-.00015-2.61991,1.21268-2.61071,1.42991ZM889.00663,1149.73826c3.68676.47661,7.67193.18006,9.43533-1.78723-1.38221-1.44721-2.88889-3.39776-2.89333-4.61968l-.10991-30.26433-8.29783,2.42262c2.42631,3.18686,2.99556,6.57117,1.87671,10.20884-7.66532.1128-12.56335,4.99997-13.24466,12.36276-.4495,4.85762,2.03333,10.67332,6.45502,12.38294,1.56317.60439,5.2533-.90311,6.77867-.70592ZM1054.31002,1148.3785c3.61939,4.36549,6.82397,1.3789,9.58412,1.41864,3.92553.05653,7.59914.71836,10.97022-1.10036l-3.54922-3.027-.09332-32.51073-9.27529,1.93105c4.85987,2.68379,3.5469,6.78591,3.20191,10.38944-4.81501.80353-8.19469,1.62104-10.78258,4.43363-4.24986,4.61886-4.20698,13.45847-.05584,18.46533ZM647.59422,1143.43547c1.41186-4.82026-.6909-8.6967-3.85945-11.10325l-7.36979-5.59747c-2.45057-1.86124-2.61342-6.64286-.04574-8.18351,3.2985-1.97916,6.57858-.02124,7.58817,4.23604.32314,1.37143,2.04065,1.09434,2.61907-.2233-.18877-2.4167-.5048-5.63742-1.58039-6.43628-4.38322-3.25547-14.79898-.25327-15.88314,6.63998-1.20406,7.65558,3.82854,10.78634,9.57734,14.61035,3.06753,2.04047,5.367,6.66693,2.36261,9.59936-3.00531,2.93333-7.5828.70314-9.0982-3.14951-.44303-1.12634-1.66937-2.42085-3.00814-3.31639-.57201,2.57477-.37918,6.75946,1.33303,8.20444,5.82293,4.91413,15.2595,1.90666,17.36462-5.28046ZM708.75195,1119.1643c-.13137-1.55643-.71294-3.66032-1.72803-3.76055-1.0828-.10691-2.88558.02598-3.49952.77583-.49129.60006-.68058,2.89469-.49875,3.93079.1786,1.01767,2.34538,2.65844,3.36694,2.50318,1.02115-.1552,2.44596-2.42316,2.35935-3.44925ZM752.6022,1122.15494c1.06487-.30154,1.79347-3.62355,1.58312-4.60965-.20648-.96794-1.70923-2.1369-3.29059-2.23868-1.29844-.08357-2.56634,2.73638-2.45214,3.97238.10632,1.15071,2.40678,3.37229,4.15962,2.87594ZM825.40395,1147.08506c-.19507,1.02453-3.75016,1.73684-4.74392,1.30632-8.8843-3.84886-8.82062-18.63115-5.87439-25.37932,1.66852-3.82163,5.46719-5.8649,9.68918-5.10123,2.94137.53203,4.36407,3.41758,7.30409,7.48206.19765-2.87287.11797-6.02986-.18829-9.49507-4.12922-.85526-8.21954-1.30188-12.16453-.51232-8.96245,1.79375-13.99134,9.80338-13.28039,18.61924.52357,6.49235,3.07018,12.79187,9.23032,15.59426,5.27394,2.39923,11.29128,1.82177,16.89165-.57787l-.2819-8.93247c-.02538-.80416,1.14385-2.95348,1.42295-3.67112l.69387-1.78415c.15696-.40359-1.8101-1.07538-2.36023-1.05171l-10.85986.4673,4.31884,3.90572c.64382,1.67119.70313,6.50157.20261,9.13036ZM1005.43458,1148.90517c3.43935-2.37618,4.52221-6.61111,3.79855-10.31399-1.4175-7.25322-9.27475-7.75127-12.80625-13.8319-1.27708-2.19891.45412-6.06826,2.29619-6.77743,1.9465-.74937,4.89246.39214,5.99431,1.9786l2.87515,4.13969c1.08386-1.7357.93933-6.44678-.74493-7.74741-4.24916-3.28132-10.50543-1.83543-13.6028,1.68321-4.58449,5.208-3.35681,11.916,2.09003,15.59671,4.65155,3.14328,10.14204,6.37337,7.82705,12.12477-.59242,1.47183-4.2422,3.3449-5.7714,2.26985-2.94164-2.06803-4.59446-4.93842-6.98669-8.1189-.9659,2.52048-.58616,7.82322,1.98514,9.4591,3.78658,2.40905,9.3374,2.09967,13.04565-.46229ZM1144.98091,1115.77824c1.56602,4.06087,2.38303,6.14047,2.80136,9.08022l.71463,16.55446c.28433,6.58656,6.21873,10.15796,12.46562,9.4293,10.14453-1.18329,10.47651-10.31522,10.79607-19.79225l.39012-11.56969,3.86882-3.43012-12.26401-.40472c-1.16823,3.38434,5.65605,1.40552,5.46728,8.18342-.23337,8.37899,1.26802,24.15064-8.72317,23.2065-2.8897-.27307-5.86587-3.40728-5.97801-6.76461l-.58675-17.56706c-.1642-4.916,6.44693-4.96399,4.17308-6.1406-.36662-.18971-1.9338-.99292-2.34628-.98526l-10.77875.20039ZM1207.18895,1122.27045c1.66846-1.21715,2.11333-5.44703.14187-6.61268-1.06853-.63178-4.16961.39387-4.53949,1.53793-.31704.9806-.03054,3.04958.50134,3.93341.53159.88335,3.06371,1.74872,3.89629,1.14135ZM696.18629,1146.71227c-.89271-.26208-2.33015-2.52963-2.3138-3.50112l.21412-12.72003,5.65109-2.3384-5.24531-2.14876-1.29305-6.78475c-1.39941.36161-3.62175,1.9707-4.33686,3.27898l-3.39159,6.20491,2.51967,2.449.46154,14.93401c.04789,1.54963,1.96132,4.3707,3.41928,4.62541,3.83821.67054,8.28297-2.83434,7.03555-3.20055l-2.72065-.79871ZM739.19265,1144.32205l.06028-13.59253,5.55487-2.68131-5.13874-2.58572-.81473-6.30402c-1.9144.29899-3.6162,1.53841-4.47909,3.12275l-3.28424,6.03018c5.07046,6.18381-.24686,14.22008,3.93886,20.73789,2.29081,3.56714,8.12211.91496,9.22028-1.37822-1.64332-.30274-5.06438-1.79697-5.0575-3.34902ZM953.64587,1144.52531l-.49594-11.73031c-.04325-1.02293,1.56916-2.8796,2.47648-3.09437,9.15488-2.16704-2.00761-1.44783-2.16341-6.27717-.04944-1.5324-.40012-4.2243-1.25012-4.1224-1.45804.1748-3.33384,1.99308-3.88863,3.01537l-3.19045,5.87898,2.18177,3.70682.74802,16.26732c.0797,1.73321,5.28163,2.42653,6.97549,2.06692,1.17061-.24852,3.84314-2.13183,2.98096-2.6512-.97379-.58023-4.32614-1.9236-4.37418-3.05996ZM1025.10021,1147.93616l-5.66721-2.32833-.16061-14.48403,3.45482-1.74353c7.60318-3.83706-1.8574-.39197-3.21808-6.07861l-1.2055-5.03812c-2.66825,2.45722-3.4341,3.39829-4.58337,5.46884l-2.44988,4.41379c1.22718,1.94057,2.55034,5.16767,2.53265,7.79753l-.06805,10.11391c-.00885,1.31488,1.52494,3.80892,2.59258,4.20388,2.71107,1.00294,8.36974-.36462,8.77266-2.32533ZM1127.99601,1142.85717l-.12876-10.30233c-.05399-4.31934,8.20088-3.11096,4.95865-4.9222-4.1911-2.34132-3.78424-.9511-4.38183-3.75488l-1.14485-5.37143c-3.59155,2.10454-4.78312,3.97102-5.73392,7.15675l-2.06209,2.89473c1.66482,1.6197,2.89948,3.37403,2.9462,5.14171l.32905,12.45056c.02859,1.08165,1.18497,3.33821,2.18047,3.70832,2.44859.91034,7.88297.03105,7.99052-1.93043-2.56655-1.30761-4.92851-3.07719-4.95343-5.0708ZM658.34142,1145.21272l-.0576-14.09798,3.304-1.70061c.50812-.26153,1.22537-1.43111,1.52928-1.95087.27639-.47269-1.4979-.76282-2.59472-.94566-4.28271-.71392-1.17223-7.5961-3.76125-6.88007-.61248.16939-2.1659,1.12279-2.49139,1.67552l-4.12742,7.00886c4.94716,5.34212.21977,12.71083,3.4613,20.24598,1.4985,3.48336,7.93253,2.62633,10.00237-.30358l-5.26458-3.05159ZM668.41725,1150.06146c1.9274,1.04124,4.93775-.02345,6.90308-1.05237l4.15008,1.58888c1.403.53715,5.00982-1.71238,4.4299-2.93299-4.1928-6.19735-.60303-6.51591-2.67275-16.98235-.70149-3.54739-4.85256-5.63863-8.37954-4.65827-2.51108.69798-6.04566,3.28441-7.22755,5.14739-.50686.79895.12082,3.33974.97788,3.41373,4.88359.4216,3.55927-6.51976,7.26199-5.45403,2.53609.72994,2.76636,5.25242.89757,6.29288-2.96738,1.65211-6.04649,3.1583-8.35091,5.12348-2.54583,2.17105-1.23176,7.76223,2.01025,9.51366ZM727.7867,1139.01219c-5.35241-4.83848-9.56238-5.02334-8.54664-8.45586.21772-.73576,1.67835-2.08056,2.38761-1.7867s2.17235,1.16027,2.76847,1.64097l2.89466,2.33416c.29176-2.05352.48904-3.68847.08359-4.54376-.40542-.85522-2.31195-1.94927-3.26693-2.16935-4.21657-.97175-7.56049.61711-9.16974,4.44269-.92593,2.20117-.1464,6.14378,2.3654,8.16841l5.54785,4.47182c.94363.76061.98204,3.79871.0027,4.39842-1.03072.63116-3.65868.14622-4.42954-.75292l-4.0375-4.70939c-.45491,2.01143-.26468,4.76283.61166,6.34329,1.67924,3.02847,9.4011,3.84027,12.76252-1.15808,1.24458-1.85066,1.75663-6.65913.0259-8.22367ZM767.34981,1129.74532c2.37807-1.98309,5.88997,4.06296,8.33885,1.28252.65854-.7477.02787-3.5299-.97752-4.00487-3.34005-1.57793-7.9543-.93354-10.98591,1.82561-5.20473,4.73697-6.5465,13.61107-1.69309,19.15461,3.94131,4.50176,12.57175,3.1863,14.21087-3.01977-4.74923,1.3735-8.64255,1.67282-10.80409-2.75397-1.73013-3.54327-1.6906-9.48082,1.9109-12.48413ZM792.75372,1140.00967c-2.2474-2.70429-5.93722-4.95629-7.97819-6.28815-.99099-.64668-1.26407-4.02335-.2173-4.26751.83101-.19383,3.08007-.16354,3.71242.52102l3.55608,3.84971c.44003-1.82362.19093-5.5829-1.11644-6.56681-3.32912-2.50544-9.41263-.87325-10.77704,3.03589-2.71537,7.77975,3.01775,9.05387,7.67457,13.29915.7178.65436.48286,3.50616-.43632,3.9192-.73878.33198-2.95219.23952-3.52243-.2984l-5.00439-4.72072c-.94349,2.08043-.28641,4.84602,1.06152,6.37957,2.52833,2.87651,9.69764,2.50926,12.73008-1.82438.95316-1.36216,1.66025-5.42279.31746-7.03857ZM844.73949,1145.56881l.14209-11.90489,7.2955-1.70388c1.32584-.4332,1.10894-5.32765-.37966-5.67579-2.05821-.48136-3.77895,1.0886-6.07759,3.32846l-1.68304-3.23888-7.09072,1.91129c1.34844,2.7653,2.4419,4.83839,2.44743,6.3733l.03449,9.57294c.00542,1.50404-1.70754,3.30163-3.60193,5.62461l12.62843-.09455-3.715-4.1926ZM867.30063,1149.55686c2.4934,1.14022,6.04191-.10659,6.18995-1.93713-1.16193-1.58101-2.46069-3.84384-2.40011-5.37812l.38505-9.75121c.15119-3.82869-3.4199-7.03641-7.59252-6.60351-3.23043.33515-7.61212,3.23644-8.75294,5.92015-.3833.9017,1.70658,3.96799,2.4006,3.37828,3.37697-2.86938,3.50082-7.59048,7.24474-5.93351,1.52203.67361,1.31721,5.67224-.14063,6.46476-2.68234,1.4582-6.35481,3.18676-9.0301,5.10985-1.6931,1.21706-.79983,5.7434.47051,7.42284,4.36414,5.76955,6.91444-.66382,11.22545,1.30758ZM920.11341,1143.46208l-.43017-17.03939-9.2487,1.12295,3.42518,3.68864.22481,13.46329c.01942,1.16323-3.55851,2.17929-4.42174,1.4989-.68949-.54345-1.89019-2.26145-1.90623-3.21925l-.21447-12.80381c-.01491-.88997-.82127-3.71546-1.68124-3.61447l-6.0811.71414c1.13235,3.01641,1.89334,4.70218,2.03231,6.50295l1.0471,13.5683c.28233,3.65842,6.40376,3.80684,8.84063,2.2177,3.5848-2.33773,3.07819,3.87685,10.42404-1.2872-.61714-1.34974-1.98295-3.72364-2.01044-4.81274ZM930.00897,1150.59655c12.63032-3.63135,5.58938,4.03505,14.50007-3.07381l-3.47423-2.49186-.10995-12.32842c-.01526-1.71075-1.51404-4.58409-2.77326-5.54809-4.236-3.2429-11.17486.62775-13.26424,4.66146-.40643.78465,1.9877,3.11546,2.6841,2.67005,4.31082-2.75717,1.09962-3.98283,5.93418-5.69423,2.06153,1.7955,2.27565,5.8887.4771,6.87863l-7.83316,4.31144c-1.62491.89436-1.83248,5.00945-1.37328,6.61796.45914,1.60832,3.45039,4.50931,5.23267,3.99688ZM973.42821,1145.61039c-1.71531.41379-5.10055-.07374-6.103-1.3752-1.21292-1.57473-1.68233-5.11907-.84364-6.43805l11.0062-1.36417c.79735-3.1272-.19317-6.26012-2.50766-8.39024-2.78995-2.5677-6.66897-2.93173-9.66664-.41172-6.08798,5.11789-7.65178,14.77077-1.88059,20.97996,1.88132,2.0241,6.59541,2.20336,9.36285,1.41656,2.82146-.80215,4.63069-2.94186,5.03372-5.47889l-4.40124,1.06174ZM1046.62293,1139.71824l.06193-13.64131-8.94763,1.22815,3.02406,3.1822c.0578,4.69494.05796,10.09323-.33726,15.04677-.13162,1.64967-5.97382.83626-6.05441-1.04168l-.79774-18.58942-7.73876,1.22735c1.55448,3.23468,2.41981,4.78256,2.50914,6.64191l.63614,13.24015c.15676,3.26261,5.20376,4.09546,7.73603,2.93718,5.44994-2.49286,7.94581,2.65636,12.21658-1.2304-1.53529-3.46137-2.32274-5.76979-2.30807-9.0009ZM1082.02898,1137.98958l8.89332-1.01749c1.12432-.12863,3.06478-2.64507,2.84919-3.75198-.68386-3.51119-3.06897-6.31958-5.53684-6.98066-3.5066-.93933-6.90938.23214-9.07133,2.88624-4.48904,5.51093-5.43716,12.93805-.91822,18.7454,1.65554,2.12755,5.2555,3.39249,7.92989,2.85457,2.55583-.51408,4.4175-1.89413,7.36478-5.08544l-3.27991-.42186c-2.44805.62172-5.09532.46233-6.44392-.52142-1.95884-1.4289-2.71477-4.89341-1.78696-6.70736ZM1110.50591,1134.2922l.07179,11.24911-1.86869,4.43557,9.33917.02928c-.9709-2.8416-1.81739-4.76726-1.86335-6.81471l-.27459-12.23402c-.03167-1.41088-1.93577-3.92157-3.14689-4.57886-1.03816-.56342-3.63373-.08774-5.19681.4374-7.83001,2.63064-2.19903-2.77426-11.63583,1.63771.69696,1.56504,1.90426,3.72692,1.9137,4.66421l.11796,11.71373c.00972.96562-1.77499,2.9833-3.0373,5.02986l10.7044.24071-1.35289-3.78206c-1.47442-4.12178-1.82016-19.21093,3.94879-15.87113.79355.45941,2.27328,2.70303,2.28056,3.8432ZM1188.27511,1130.33392c.7739.53873,2.09597,2.36323,2.11942,3.4321l.25797,11.7597-3.10174,4.39923,10.31411.02027c-.75337-2.57069-1.52288-4.73324-1.61261-6.77562l-.52646-11.98228c-.07683-1.74868-2.37392-4.70515-3.88377-4.77993,1.00988.05002-14.96691.84449-15.26965,1.33727,2.0825,7.26373,2.42406,15.5003-.59513,22.19845,2.5954.49594,6.70022.23646,8.63387-.46915-1.34639-4.08127-2.76358-23.61448,3.66399-19.14004ZM1230.53717,1148.28003c5.81328-5.80313,5.09878-14.57007.09436-19.83012-2.83813-2.98311-7.32101-2.93657-10.97314-1.39929-3.1701,1.33438-5.09171,4.77197-5.89423,8.87569-1.13941,5.82646.91772,12.43404,7.02462,14.38969,2.36547.75751,7.86209-.15296,9.74839-2.03596ZM1250.98195,1146.14127l-1.38542,3.95534,8.97884-.18935c-3.01652-5.82222,1.1738-21.96714-5.54659-23.60316-1.07721-.26224-3.44581.55787-4.9335,1.19651-4.73457,2.03248-1.62501-3.94084-11.06612,1.0273,1.13734,2.7008,2.15758,5.23251,2.0877,7.33392l-.35173,10.57698-3.01081,3.39146,10.19977.21781c-1.53703-5.82345-1.75168-12.3812-1.01052-17.93085.14111-1.05661,3.44611-1.86212,4.32634-1.25181,3.59798,2.49467,2.53644,12.92221,1.71204,15.27585ZM711.66117,1149.94423c-1.7356-3.83598-2.62553-5.31355-2.61501-7.66655l.06853-15.32294-8.43071,1.16317c1.29248,1.81813,2.91781,3.47779,2.91092,4.33202l-.10568,13.10484c-.00659.81757-1.65799,2.40185-2.92604,4.36804l11.09799.02143ZM756.74354,1149.98973c-1.63058-3.63283-2.49348-5.24064-2.48977-6.63644l.0439-16.5195-8.13731.95249,2.66301,4.5548-.1542,13.86053-2.99118,3.83998,11.06554-.05185ZM1201.07363,1150.12881l11.081-.32597-3.32531-3.99209-.02547-19.21063-7.91944,1.66565c1.36029,2.78023,2.49122,4.88217,2.49321,6.39827l.01135,8.65051c.00219,1.66927-1.29522,4.26306-2.31535,6.81426Z"/>
      <path class="cls-1" d="M1254.15148,827.90498l173.66917-.02406,27.0634-.11117.73099,14.57007c.08734,1.74092-.45547,4.15891-1.15365,6.25105l-51.49153.26935-85.1195-.03223-223.91397-.01057-262.95263.03408-388.69393.021c-3.04998.00016-5.21234-.71891-7.55611-1.54298l-.3096-19.52172,16.77896.0383,185.82098.15134.18315-60.8145,39.85627.06418,1.91875.2993c.53622.08364.81313,1.74986.81731,2.33535l.17647,24.72418,16.9781-.08472-.02469-70.64836,44.978-.01472.14988,39.1887-.07891,66.74711,14.60834.38952c.25798.04004,1.37414-1.24026,1.88676-2.15503l.03313-145.97221,40.06118.30796.08163,147.03933,16.56152.5216-.13555-40.33626-.05826-190.22844c-.00033-1.06684.15255-2.25148.35317-2.46586.30249-.32323.9348-.07794,1.62297.09886l18.73253,16.44085,23.58195,20.75179-.19404,63.78171.06865,28.89169,39.86285-.22892.12856,103.24023,14.51418-.05086,1.27947-12.902,6.83463-73.8522,4.13714-57.18399,7.16098-137.83866c-5.70802.64378-16.66115-2.91463-18.52209-6.91431.37062-5.70697,3.46459-9.76181-2.81572-12.44858-.76716-4.95727-.85731-12.38821.03588-17.46139.25843-1.46782,3.64434-2.96649,4.97721-3.3716,3.64753-1.10862-.37857-5.68368,5.78862-7.47177.91905-.41933,1.43598-2.76798,1.98495-4.02511,1.4679-3.36145,10.8384.18492,10.96066-7.37372l.9061-56.01756c.04251-2.62783-.79386-4.94777-2.70517-6.87542-1.54913-1.56237-2.07001-5.18387-.70899-6.77417l4.90545-5.73183.52281-44.22177,2.89092-3.53446.05026-42.86636c.00121-1.03382-.18954-3.45603.61036-3.50687l3.80524-.24183c.33564-.02133,1.16269,1.74636,1.16549,2.12362l.32913,44.34554,2.25024,4.82998.40074,42.32335,4.56534,6.65303c1.67511,2.44113,1.58407,5.19752-.77807,7.37868-1.70982,1.57881-1.59702,4.47053-1.59833,7.13918l-.02481,50.67839c-.001,2.04217.41688,6.87708,1.99235,7.4707l9.19755,3.46559c.50334,2.97311,1.60302,4.8863,4.77974,5.53208l1.44575,5.66887,7.42874,3.66325.85145,14.57678c.17278,2.95797-1.56002,5.30994-4.78209,6.58179l.52325,11.17044c-5.34876,3.51706-11.5563,5.26509-18.44371,4.60192l.36696,14.68352,1.59623,48.86931,1.75484,37.17097,11.00464,139.74194,4.06887,37.17302.4415,4.89732,12.71265.0543-.16102-147.88451c-.00299-2.74971,1.28491-4.8016,3.22018-5.87515l10.58451-5.87151,30.71898-17.6714,10.85516-5.41694c.40501.11338,1.55848.45368,1.50924.43898l.10254,20.44598.16909,161.51807,15.59347.00907.24578-13.90764-.07186-212.50287-.00101-2.39426c-.0002-.46998,1.48891-.62824,2.05821-.6419l12.33104-.29591.18937-37.46219,3.03697-.83369c.80006-.21963,2.38469,1.47943,2.38445,2.44059l-.00838,33.87525c-.00017.67877,1.54478,2.32854,2.31733,2.31438l14.7823-.27099-.0029-36.93507c-.0001-1.29988,2.73049-2.25499,3.6456-1.8652.9068.38625,1.67399,2.28177,1.68633,3.81899l.26405,32.8742c.00547.68098,1.824,2.12787,2.56416,2.15758l12.18441.48917.00796,123.44283-.11917,105.7568,13.25669.13305-.06917-133.78743c-.00038-.73638.12615-1.79299.25049-2.13369.18666-.51142,1.74322-.69115,2.40053-.62698l5.92449.57839.10446-12.60057,35.03167-.12403c1.79618-.00636,3.55652.14996,5.52213.30759l.18119,10.36823c.0148.84685,1.54641,2.11603,2.22307,2.14906l5.66192.27634.33772,14.81897.15756,120.03571,14.69533.47647-.00412-78.37715-.15652-7.49848,46.91203-.31379c.74742-.005,2.64704,1.89422,2.64582,2.62185l-.13298,78.89116.00041,2.33988c.00007.39333,1.36341.61795,2.08683.61785Z"/>
      <path class="cls-1" d="M892.96802,309.15684c-11.52791,10.48954-21.85439,21.29009-30.7045,34.13732l-13.84599,20.09948c-4.99471,7.25055-9.45706,14.49667-13.84344,22.15672l-6.89939,12.04859-5.72475,10.47572-10.078,18.62739-28.98283,56.06926-34.9537,66.06777c-7.5434,14.25816-15.35444,27.50373-23.83571,41.16469l-7.73462,12.45832-15.40376,23.59969c-4.63496,7.10111-9.15505,13.92249-14.24989,20.64281l-4.29469,5.66489c-6.3698,8.40205-12.47191,16.53199-19.40177,24.66311-18.98153,22.27189-42.47896,44.70986-66.22749,61.83186-12.87953,9.28576-26.01215,16.79812-40.10117,24.02923-13.10498,6.72607-17.64954,8.4386-31.46609,13.29026-30.11563,10.57507-60.10451,16.05147-92.24975,17.66351-2.2162.11114-4.85307-1.73906-4.87032-3.7972l-.09228-11.00832c-.04328-5.16283,10.09589-5.09161,14.15121-5.52239l19.27581-2.04763c21.44539-2.2781,62.37905-13.92411,81.52512-23.62478l17.32256-8.77676c8.87659-4.49747,16.89146-9.93684,25.03787-15.63978,11.84127-8.28955,22.5-17.17842,33.05736-27.04556,6.47372-6.05048,12.83314-11.66211,18.51559-18.49848l24.53869-29.52172c2.21266-2.66198,4.1465-5.86189,6.19097-8.65405l9.40831-12.84907c22.91357-31.2934,50.8371-81.51786,69.15497-116.43518l8.98746-17.13179,17.65479-33.68755,9.39377-18.56824,7.40655-14.59002,5.8886-11.12356,5.79889-10.94271,12.92219-23.42608,15.82152-25.90983c6.07037-9.94103,12.32266-19.40957,19.57668-28.46242l10.6822-13.33115c6.06951-7.57461,15.63712-16.28487,23.217-22.74959,22.42869-19.12895,52.65071-31.17602,82.12934-21.96425,8.51467,2.66075,16.39012,6.03832,24.00246,10.82183,25.66576,16.12808,48.60064,43.98933,64.54142,69.54483l13.02197,20.87621c3.26461,5.23366,6.32268,10.38491,9.27245,15.76076l8.10137,14.7645,28.96802,55.07793,20.87863,40.06086,14.31101,26.75341,17.07129,30.84488,15.38589,26.72945c10.21393,17.74435,21.22904,34.17637,33.1368,50.88104,10.46107,14.67518,33.35018,43.07863,45.89744,55.02653l15.40035,14.66471c6.66053,6.34237,15.61202,13.61781,23.22738,18.88703l16.45823,11.38777c3.02119,2.09042,6.197,3.81855,9.41347,5.6826,35.18084,20.38846,77.59355,33.26663,118.30481,37.01781,6.66695.6143,17.64479.5417,17.67539,6.24828l.06104,11.38209c.00583,1.08723-2.61986,3.05324-3.946,2.96284-24.57379-1.67499-57.8924-5.51003-81.07053-13.64981l-11.89277-4.17655c-20.10017-7.05885-41.97125-17.59634-59.66127-29.41637l-12.63959-8.44546c-17.96922-12.00659-33.67839-26.50079-48.56115-42.15061l-7.37635-7.75653c-8.68671-9.13442-16.24389-18.78114-24.11166-28.6714-1.39146-1.74915-3.42465-3.82484-4.62892-5.59383l-28.2676-41.52333c-12.46279-18.30706-23.19555-36.7129-33.7292-56.21974l-34.76953-64.38827-16.34061-31.5657-15.9985-30.99987-11.88831-22.11705-17.57966-30.5491c-4.9662-8.63003-10.38292-16.59186-16.22931-24.60645l-11.40708-15.63751c-4.22639-5.79379-8.88867-11.03044-13.81407-16.3178-10.03982-10.77764-20.10572-19.00436-33.09808-26.03702-18.05881-9.77509-37.55014-10.34228-56.1433-1.36842-9.08438,4.38451-17.1993,9.63219-24.67326,16.43295Z"/>
      <g>
        <path class="cls-1" d="M874.39685,1017.59018c-.92669-4.78094-7.69605-7.78257-11.58924-8.13337l-15.00059-1.35162-.44111-12.06851,89.99521-.02269-.92724,12.2666-9.3502,1.06043c-4.97421.56414-8.30223,6.69532-8.46068,11.35086-.24699,7.25738-.61965,14.1159-.42043,21.30075l1.04281,37.60855-25.92926,6.68833c-11.48588,2.96273-23.31889,4.37621-35.21338,5.38105-15.14033,1.27905-29.22979-.32031-43.80843-4.07647-38.03141-9.7987-66.95118-34.63156-74.48445-74.45401-6.86537-36.29183,4.2495-69.90331,31.94492-94.24684,19.9182-17.50757,47.02228-26.19723,73.19368-27.75023,27.24602-1.61678,40.52665,1.48835,66.13584,8.76528,1.26218.35865,4.07209,1.84452,4.1719,3.12103l3.56244,45.56443c-3.99586,1.6629-7.57954,2.27259-11.89556,2.27504-6.80526-27.46702-25.63002-45.49169-54.90572-44.39022-12.84004.48309-24.31099,3.62664-34.93231,10.78171-14.26604,9.61034-24.40542,26.82673-28.09399,43.75376-7.09326,32.55135-2.49271,71.35402,19.69493,97.30031,4.5699,5.34406,10.85476,8.81826,17.02108,12.12713,12.83861,6.88923,27.49367,8.60061,41.43724,3.76482,4.91025-1.70293,7.62541-7.22076,7.77607-12.15129l.73544-24.06723c.20083-6.57214.11199-13.32449-1.259-20.39761Z"/>
        <path class="cls-1" d="M1239.01065,897.38014c-.0092-.21723,1.47267-1.43006,2.61071-1.42991l70.1199.00925c2.28615,3.45847,1.18336,7.03412.54563,11.26331l-6.71431,1.23553c-6.93513,1.27616-12.88371,5.26115-14.80534,12.46683-1.15013,4.3127-2.14217,9.40038-2.15227,14.07366l-.12968,59.96617c-.05249,24.27306-3.15349,54.1647-19.64576,72.9808-7.4907,8.54617-16.99478,15.06607-27.58286,19.16846-13.56007,5.25389-27.72556,5.94064-42.25701,4.98114-15.9693-1.05445-31.06554-5.68907-43.80236-15.32864-20.416-15.45139-25.72167-39.6797-25.70375-64.20948l.06176-84.55575c.00467-6.39641-2.62387-17.03944-8.38986-18.03006l-13.30908-2.28656-.97253-8.87452c-.11069-1.01006,1.95859-2.88887,3.08343-2.88858l72.90923.01883,14.0354-.05017.08858,11.85854-8.50795.88687c-6.99163.72881-13.27731,5.17255-14.05322,12.88074-.38973,3.87179-.73563,8.2718-.71173,12.53632l.43665,77.93657c.06879,12.27875,2.33788,23.76071,7.10343,34.67261,4.38575,10.04224,11.94582,17.27307,22.31875,20.76884,17.22412,5.80469,37.13569,4.30965,49.25055-10.76627,13.94789-17.35696,16.72498-37.6637,16.73199-59.86418l.01717-54.40375c.00255-8.07672-1.55904-16.03188-4.66744-23.43801-2.33345-5.55972-8.06417-9.05233-13.94866-9.75815l-11.51734-1.38146-.44204-10.43898Z"/>
        <path class="cls-1" d="M1088.0557,1050.0996c-10.81627,31.54094-46.5402,44.44191-78.02826,42.26745-16.66118-1.15056-32.30057-4.49955-47.08581-12.2671-2.10855-8.47642-3.92464-16.50619-5.12871-24.8489l-3.58803-24.8606,13.47273-2.54041c6.98306,17.35025,14.42346,32.97631,30.27593,43.08759,14.00687,8.93409,36.01804,9.52134,46.20903-4.79441,6.51474-9.15155,6.58335-22.23003,1.71753-32.0769-4.12151-8.34064-15.29506-16.0973-23.54023-20.2989l-19.26871-9.81901-12.05664-6.8863c-8.58392-4.90281-16.35818-10.76678-22.10983-18.95989-14.4765-20.6215-12.09491-48.55941,5.41414-66.82981,19.49698-20.34478,52.82926-24.55758,79.5996-18.23198l16.38423,3.87146c1.56252.36921,3.12385,3.11325,3.49186,5.19349l6.61405,37.38731c.1914,1.0819-1.11518,3.37289-1.7797,3.4982l-10.82255,2.04082c-3.55984-10.00745-7.45992-18.93563-13.79308-27.14456-10.368-13.43882-30.18596-16.99645-43.85353-8.88252-13.57795,8.06074-16.55161,29.66694-6.26794,40.22189,11.6749,11.98289,21.48058,14.61721,35.95092,22.02777l13.87704,7.10672c7.20589,3.69028,13.53638,7.81421,19.54825,13.46215,15.78692,14.83125,21.86812,37.57115,14.76769,58.27645Z"/>
        <path class="cls-1" d="M706.29883,1066.39709c-26.85092,33.76715-79.19699,31.04025-115.20311,14.16407-2.09222-7.01508-4.00203-13.94586-5.27166-21.28096l-5.04506-29.14712,14.43869-1.69431c8.353,20.86868,18.92571,41.00085,41.61237,47.66108,6.49194,1.90587,14.0285,1.7883,20.47828.28352,7.41032-1.72889,13.04245-7.19353,16.30872-13.57974,6.09185-11.91076,4.3827-25.8223-5.35527-35.09462-11.71073-11.15075-18.09535-12.86515-32.55684-20.62418l-8.45144-4.53445c-7.47344-4.00973-14.5861-8.23118-21.05352-13.75152-23.87129-20.37557-26.00878-51.80367-6.47126-75.01731,4.95863-5.89163,10.67896-10.10772,17.43434-13.67044,25.7236-13.56639,53.00292-11.56096,80.22288-3.47113,2.45925.73089,4.28195,2.66056,4.6868,5.10266l3.85314,23.24266c.96057,5.79429,1.60768,10.66509,2.0619,16.73931l-11.63457,2.08058c-7.96235-21.55038-19.20322-41.29913-45.40666-38.93688-12.38156,1.1162-22.17888,8.99218-24.98893,21.25499-1.90165,8.29862-.45905,16.90494,5.56445,23.41875,10.74342,11.61792,17.55157,12.87744,30.74399,19.36948l9.90821,4.87587,13.70768,7.3019c13.55179,7.21886,27.54536,22.50975,30.60246,38.3724,3.23026,16.76113.62555,33.33955-10.18559,46.93542Z"/>
      </g>
      <g>
        <path class="cls-1" d="M825.40395,1147.08506c.50052-2.62879.44121-7.45917-.20261-9.13036l-4.31884-3.90572,10.85986-.4673c.55013-.02367,2.51719.64812,2.36023,1.05171l-.69387,1.78415c-.2791.71764-1.44832,2.86696-1.42295,3.67112l.2819,8.93247c-5.60037,2.39964-11.61771,2.9771-16.89165.57787-6.16014-2.80239-8.70675-9.1019-9.23032-15.59426-.71095-8.81586,4.31795-16.82549,13.28039-18.61924,3.94499-.78955,8.03531-.34294,12.16453.51232.30626,3.46522.38594,6.6222.18829,9.49507-2.94002-4.06448-4.36271-6.95003-7.30409-7.48206-4.22198-.76366-8.02066,1.2796-9.68918,5.10123-2.94624,6.74817-3.00992,21.53046,5.87439,25.37932.99376.43052,4.54885-.28179,4.74392-1.30632Z"/>
        <path class="cls-1" d="M889.00663,1149.73826c-1.52537-.19719-5.2155,1.31031-6.77867.70592-4.42169-1.70963-6.90452-7.52533-6.45502-12.38294.68132-7.36279,5.57934-12.24996,13.24466-12.36276,1.11884-3.63767.54959-7.02198-1.87671-10.20884l8.29783-2.42262.10991,30.26433c.00444,1.22192,1.51111,3.17247,2.89333,4.61968-1.76339,1.96729-5.74857,2.26383-9.43533,1.78723ZM889.9159,1145.60885l-.23606-14.17841c-.01785-1.07185-2.3616-3.01033-3.33405-2.80184-5.16505,1.10739-5.01628,10.92548-3.19082,14.9112,1.29717,2.83225,3.91021,3.83829,6.76093,2.06905Z"/>
        <path class="cls-1" d="M1054.31002,1148.3785c-4.15114-5.00686-4.19401-13.84646.05584-18.46533,2.58789-2.81259,5.96757-3.6301,10.78258-4.43363.34499-3.60353,1.65796-7.70565-3.20191-10.38944l9.27529-1.93105.09332,32.51073,3.54922,3.027c-3.37109,1.81872-7.0447,1.15689-10.97022,1.10036-2.76015-.03975-5.96473,2.94685-9.58412-1.41864ZM1065.48169,1142.71372l-.37024-12.44872c-.02502-.84134-2.79251-1.95315-3.56661-1.62429-4.88402,2.07489-5.23627,11.89406-2.35642,16.19563.71791,1.07233,2.98451,2.1238,4.02632,1.79967.86802-.27005,2.30091-2.78012,2.26694-3.9223Z"/>
        <path class="cls-1" d="M1144.98091,1115.77824l10.77875-.20039c.41248-.00767,1.97966.79555,2.34628.98526,2.27386,1.17661-4.33727,1.2246-4.17308,6.1406l.58675,17.56706c.11214,3.35733,3.08831,6.49154,5.97801,6.76461,9.99119.94414,8.4898-14.82752,8.72317-23.2065.18878-6.7779-6.63551-4.79908-5.46728-8.18342l12.26401.40472-3.86882,3.43012-.39012,11.56969c-.31956,9.47703-.65153,18.60896-10.79607,19.79225-6.24689.72866-12.18129-2.84274-12.46562-9.4293l-.71463-16.55446c-.41833-2.93976-1.23534-5.01936-2.80136-9.08022Z"/>
        <path class="cls-1" d="M647.59422,1143.43547c-2.10512,7.18712-11.54169,10.1946-17.36462,5.28046-1.71221-1.44498-1.90504-5.62967-1.33303-8.20444,1.33878.89554,2.56511,2.19006,3.00814,3.31639,1.51539,3.85265,6.09289,6.08284,9.0982,3.14951,3.00438-2.93243.70492-7.55889-2.36261-9.59936-5.7488-3.82401-10.78141-6.95477-9.57734-14.61035,1.08416-6.89325,11.49993-9.89545,15.88314-6.63998,1.07559.79886,1.39162,4.01958,1.58039,6.43628-.57842,1.31764-2.29593,1.59473-2.61907.2233-1.0096-4.25729-4.28967-6.2152-7.58817-4.23604-2.56768,1.54065-2.40483,6.32226.04574,8.18351l7.36979,5.59747c3.16854,2.40656,5.27131,6.283,3.85945,11.10325Z"/>
        <path class="cls-1" d="M1005.43458,1148.90517c-3.70825,2.56196-9.25907,2.87134-13.04565.46229-2.57131-1.63588-2.95104-6.93862-1.98514-9.4591,2.39223,3.18048,4.04505,6.05087,6.98669,8.1189,1.5292,1.07505,5.17897-.79801,5.7714-2.26985,2.31498-5.75141-3.17551-8.98149-7.82705-12.12477-5.44684-3.6807-6.67452-10.3887-2.09003-15.59671,3.09738-3.51864,9.35364-4.96453,13.6028-1.68321,1.68426,1.30063,1.82879,6.01171.74493,7.74741l-2.87515-4.13969c-1.10185-1.58645-4.04781-2.72797-5.99431-1.9786-1.84207.70917-3.57327,4.57852-2.29619,6.77743,3.5315,6.08063,11.38875,6.57868,12.80625,13.8319.72366,3.70288-.3592,7.93781-3.79855,10.31399Z"/>
        <path class="cls-1" d="M920.11341,1143.46208c.02749,1.0891,1.3933,3.46299,2.01044,4.81274-7.34585,5.16405-6.83924-1.05053-10.42404,1.2872-2.43687,1.58914-8.5583,1.44073-8.84063-2.2177l-1.0471-13.5683c-.13897-1.80077-.89996-3.48654-2.03231-6.50295l6.0811-.71414c.85997-.10099,1.66633,2.72449,1.68124,3.61447l.21447,12.80381c.01604.9578,1.21675,2.6758,1.90623,3.21925.86322.68039,4.44116-.33567,4.42174-1.4989l-.22481-13.46329-3.42518-3.68864,9.2487-1.12295.43017,17.03939Z"/>
        <path class="cls-1" d="M1110.50591,1134.2922c-.00728-1.14018-1.487-3.38379-2.28056-3.8432-5.76895-3.3398-5.4232,11.74935-3.94879,15.87113l1.35289,3.78206-10.7044-.24071c1.26231-2.04656,3.04702-4.06424,3.0373-5.02986l-.11796-11.71373c-.00944-.93729-1.21674-3.09917-1.9137-4.66421,9.4368-4.41197,3.80582.99293,11.63583-1.63771,1.56308-.52514,4.15865-1.00082,5.19681-.4374,1.21112.65729,3.11522,3.16797,3.14689,4.57886l.27459,12.23402c.04596,2.04746.89245,3.97311,1.86335,6.81471l-9.33917-.02928,1.86869-4.43557-.07179-11.24911Z"/>
        <path class="cls-1" d="M1046.62293,1139.71824c-.01467,3.23111.77277,5.53953,2.30807,9.0009-4.27077,3.88676-6.76664-1.26246-12.21658,1.2304-2.53227,1.15829-7.57927.32544-7.73603-2.93718l-.63614-13.24015c-.08933-1.85935-.95466-3.40723-2.50914-6.64191l7.73876-1.22735.79774,18.58942c.08059,1.87794,5.92279,2.69135,6.05441,1.04168.39522-4.95354.39506-10.35183.33726-15.04677l-3.02406-3.1822,8.94763-1.22815-.06193,13.64131Z"/>
        <path class="cls-1" d="M1250.98195,1146.14127c.8244-2.35364,1.88594-12.78118-1.71204-15.27585-.88023-.61031-4.18523.1952-4.32634,1.25181-.74116,5.54965-.52651,12.1074,1.01052,17.93085l-10.19977-.21781,3.01081-3.39146.35173-10.57698c.06988-2.10141-.95036-4.63312-2.0877-7.33392,9.44111-4.96814,6.33155,1.00519,11.06612-1.0273,1.4877-.63865,3.85629-1.45875,4.9335-1.19651,6.72039,1.63602,2.53007,17.78095,5.54659,23.60316l-8.97884.18935,1.38542-3.95534Z"/>
        <path class="cls-1" d="M1188.27511,1130.33392c-6.42757-4.47445-5.01038,15.05877-3.66399,19.14004-1.93365.7056-6.03847.96508-8.63387.46915,3.01919-6.69814,2.67763-14.93472.59513-22.19845.30274-.49278,16.27953-1.28725,15.26965-1.33727,1.50985.07478,3.80694,3.03126,3.88377,4.77993l.52646,11.98228c.08973,2.04238.85924,4.20493,1.61261,6.77562l-10.31411-.02027,3.10174-4.39923-.25797-11.7597c-.02345-1.06887-1.34552-2.89336-2.11942-3.4321Z"/>
        <path class="cls-1" d="M668.41725,1150.06146c-3.24201-1.75143-4.55608-7.34261-2.01025-9.51366,2.30442-1.96517,5.38353-3.47137,8.35091-5.12348,1.86879-1.04046,1.63852-5.56294-.89757-6.29288-3.70272-1.06573-2.3784,5.87563-7.26199,5.45403-.85706-.07399-1.48474-2.61477-.97788-3.41373,1.18188-1.86298,4.71647-4.44941,7.22755-5.14739,3.52698-.98035,7.67805,1.11089,8.37954,4.65827,2.06972,10.46644-1.52004,10.785,2.67275,16.98235.57993,1.22061-3.02689,3.47014-4.4299,2.93299l-4.15008-1.58888c-1.96533,1.02892-4.97568,2.09361-6.90308,1.05237ZM676.28169,1143.00262l-.39606-4.51753c-2.04799.31217-4.57887,1.83233-5.03033,4.60994-.18214,1.12062,1.71776,3.40575,2.78681,3.42813,1.06919.02239,2.73835-2.39404,2.63958-3.52053Z"/>
        <path class="cls-1" d="M1230.53717,1148.28003c-1.8863,1.883-7.38292,2.79347-9.74839,2.03596-6.1069-1.95565-8.16404-8.56323-7.02462-14.38969.80252-4.10372,2.72412-7.54131,5.89423-8.87569,3.65213-1.53728,8.13501-1.58382,10.97314,1.39929,5.00442,5.26006,5.71892,14.02699-.09436,19.83012ZM1223.48114,1128.38087c-5.69886.1638-4.70878,22.27901,1.9108,19.89772,4.73797-1.70442,3.91379-20.06513-1.9108-19.89772Z"/>
        <path class="cls-1" d="M930.00897,1150.59655c-1.78228.51243-4.77353-2.38856-5.23267-3.99688-.45919-1.60851-.25162-5.7236,1.37328-6.61796l7.83316-4.31144c1.79855-.98994,1.58443-5.08313-.4771-6.87863-4.83456,1.71139-1.62337,2.93706-5.93418,5.69423-.6964.44541-3.09053-1.88539-2.6841-2.67005,2.08938-4.03371,9.02824-7.90436,13.26424-4.66146,1.25922.964,2.758,3.83735,2.77326,5.54809l.10995,12.32842,3.47423,2.49186c-8.91069,7.10887-1.86975-.55754-14.50007,3.07381ZM935.55827,1139.83757c.02786-1.07911-2.33777-.58241-3.49633.34459-1.19694.95772-2.03224,3.35627-1.57754,4.66553.39714,1.1435,3.59638,2.12316,4.26618,1.06922.59105-.93005.74996-3.84358.80769-6.07934Z"/>
        <path class="cls-1" d="M867.30063,1149.55686c-4.311-1.9714-6.86131,4.46197-11.22545-1.30758-1.27034-1.67944-2.16361-6.20578-.47051-7.42284,2.6753-1.92309,6.34776-3.65166,9.0301-5.10985,1.45784-.79252,1.66266-5.79115.14063-6.46476-3.74392-1.65697-3.86777,3.06414-7.24474,5.93351-.69402.5897-2.78391-2.47659-2.4006-3.37828,1.14082-2.68371,5.52251-5.585,8.75294-5.92015,4.17262-.4329,7.7437,2.77481,7.59252,6.60351l-.38505,9.75121c-.06059,1.53427,1.23818,3.79711,2.40011,5.37812-.14805,1.83054-3.69655,3.07735-6.18995,1.93713ZM866.18022,1142.6205l-.85276-4.20374c-2.63705.5533-4.79501,3.23194-4.5756,5.49272.126,1.29831,2.74637,2.842,3.78779,2.50182.83191-.27174,1.86504-2.68426,1.64057-3.7908Z"/>
        <path class="cls-1" d="M1082.02898,1137.98958c-.92781,1.81395-.17188,5.27847,1.78696,6.70736,1.3486.98375,3.99587,1.14314,6.44392.52142l3.27991.42186c-2.94727,3.1913-4.80895,4.57136-7.36478,5.08544-2.67439.53793-6.27435-.72702-7.92989-2.85457-4.51895-5.80736-3.57082-13.23447.91822-18.7454,2.16195-2.6541,5.56473-3.82557,9.07133-2.88624,2.46787.66108,4.85298,3.46946,5.53684,6.98066.21559,1.1069-1.72488,3.62334-2.84919,3.75198l-8.89332,1.01749ZM1087.95229,1134.42168c-.52048-3.28258-.76135-4.01128-2.9277-6.08193-2.01575,2.23723-2.50273,3.12499-3.53508,6.06539l6.46278.01653Z"/>
        <path class="cls-1" d="M973.42821,1145.61039l4.40124-1.06174c-.40303,2.53703-2.21226,4.67674-5.03372,5.47889-2.76744.7868-7.48152.60754-9.36285-1.41656-5.7712-6.20919-4.20739-15.86208,1.88059-20.97996,2.99767-2.52001,6.87669-2.15598,9.66664.41172,2.31449,2.13012,3.30502,5.26304,2.50766,8.39024l-11.0062,1.36417c-.83869,1.31898-.36928,4.86333.84364,6.43805,1.00244,1.30146,4.38769,1.78899,6.103,1.3752ZM972.31903,1132.1223c0-1.71077-1.38685-3.09762-3.09762-3.09762s-3.09762,1.38685-3.09762,3.09762,1.38685,3.09762,3.09762,3.09762,3.09762-1.38685,3.09762-3.09762Z"/>
        <path class="cls-1" d="M696.18629,1146.71227l2.72065.79871c1.24742.36621-3.19735,3.87108-7.03555,3.20055-1.45796-.25471-3.37139-3.07578-3.41928-4.62541l-.46154-14.93401-2.51967-2.449,3.39159-6.20491c.71511-1.30829,2.93745-2.91737,4.33686-3.27898l1.29305,6.78475,5.24531,2.14876-5.65109,2.3384-.21412,12.72003c-.01635.97148,1.42108,3.23904,2.3138,3.50112Z"/>
        <path class="cls-1" d="M739.19265,1144.32205c-.00688,1.55205,3.41418,3.04628,5.0575,3.34902-1.09818,2.29318-6.92947,4.94537-9.22028,1.37822-4.18572-6.51782,1.1316-14.55409-3.93886-20.73789l3.28424-6.03018c.86288-1.58434,2.56469-2.82376,4.47909-3.12275l.81473,6.30402,5.13874,2.58572-5.55487,2.68131-.06028,13.59253Z"/>
        <path class="cls-1" d="M658.34142,1145.21272l5.26458,3.05159c-2.06983,2.92991-8.50387,3.78694-10.00237.30358-3.24153-7.53515,1.48586-14.90386-3.4613-20.24598l4.12742-7.00886c.32549-.55273,1.87891-1.50613,2.49139-1.67552,2.58902-.71603-.52146,6.16615,3.76125,6.88007,1.09682.18284,2.87111.47297,2.59472.94566-.30391.51976-1.02117,1.68934-1.52928,1.95087l-3.304,1.70061.0576,14.09798Z"/>
        <path class="cls-1" d="M792.75372,1140.00967c1.34279,1.61578.63571,5.67641-.31746,7.03857-3.03244,4.33365-10.20175,4.70089-12.73008,1.82438-1.34793-1.53355-2.00501-4.29914-1.06152-6.37957l5.00439,4.72072c.57024.53792,2.78365.63037,3.52243.2984.91918-.41304,1.15412-3.26484.43632-3.9192-4.65681-4.24528-10.38994-5.5194-7.67457-13.29915,1.36441-3.90914,7.44792-5.54133,10.77704-3.03589,1.30737.98391,1.55647,4.74319,1.11644,6.56681l-3.55608-3.84971c-.63235-.68456-2.8814-.71485-3.71242-.52102-1.04677.24416-.77368,3.62083.2173,4.26751,2.04096,1.33186,5.73079,3.58386,7.97819,6.28815Z"/>
        <path class="cls-1" d="M953.64587,1144.52531c.04804,1.13636,3.40039,2.47973,4.37418,3.05996.86218.51938-1.81036,2.40268-2.98096,2.6512-1.69387.35961-6.8958-.33372-6.97549-2.06692l-.74802-16.26732-2.18177-3.70682,3.19045-5.87898c.55479-1.0223,2.43058-2.84057,3.88863-3.01537.85-.1019,1.20069,2.58999,1.25012,4.1224.1558,4.82934,11.31829,4.11014,2.16341,6.27717-.90732.21477-2.51973,2.07145-2.47648,3.09437l.49594,11.73031Z"/>
        <path class="cls-1" d="M1127.99601,1142.85717c.02492,1.99361,2.38688,3.76319,4.95343,5.0708-.10755,1.96147-5.54193,2.84076-7.99052,1.93043-.9955-.37011-2.15188-2.62667-2.18047-3.70832l-.32905-12.45056c-.04672-1.76768-1.28137-3.52201-2.9462-5.14171l2.06209-2.89473c.9508-3.18573,2.14236-5.05221,5.73392-7.15675l1.14485,5.37143c.59759,2.80378.19073,1.41356,4.38183,3.75488,3.24223,1.81124-5.01264.60286-4.95865,4.9222l.12876,10.30233Z"/>
        <path class="cls-1" d="M727.7867,1139.01219c1.73073,1.56455,1.21868,6.37302-.0259,8.22367-3.36142,4.99835-11.08328,4.18655-12.76252,1.15808-.87634-1.58046-1.06657-4.33186-.61166-6.34329l4.0375,4.70939c.77086.89914,3.39882,1.38408,4.42954.75292.97935-.59971.94093-3.63781-.0027-4.39842l-5.54785-4.47182c-2.51181-2.02463-3.29134-5.96724-2.3654-8.16841,1.60925-3.82557,4.95317-5.41444,9.16974-4.44269.95498.22008,2.86151,1.31413,3.26693,2.16935.40546.85529.20817,2.49024-.08359,4.54376l-2.89466-2.33416c-.59612-.4807-2.0592-1.34711-2.76847-1.64097s-2.16988,1.05094-2.38761,1.7867c-1.01574,3.43252,3.19423,3.61738,8.54664,8.45586Z"/>
        <path class="cls-1" d="M1025.10021,1147.93616c-.40292,1.96071-6.0616,3.32827-8.77266,2.32533-1.06764-.39497-2.60143-2.88901-2.59258-4.20388l.06805-10.11391c.01769-2.62986-1.30547-5.85697-2.53265-7.79753l2.44988-4.41379c1.14927-2.07056,1.91512-3.01163,4.58337-5.46884l1.2055,5.03812c1.36068,5.68664,10.82126,2.24156,3.21808,6.07861l-3.45482,1.74353.16061,14.48403,5.66721,2.32833Z"/>
        <path class="cls-1" d="M844.73949,1145.56881l3.715,4.1926-12.62843.09455c1.89439-2.32298,3.60735-4.12057,3.60193-5.62461l-.03449-9.57294c-.00553-1.53491-1.09899-3.608-2.44743-6.3733l7.09072-1.91129,1.68304,3.23888c2.29863-2.23985,4.01938-3.80981,6.07759-3.32846,1.48859.34814,1.7055,5.24259.37966,5.67579l-7.2955,1.70388-.14209,11.90489Z"/>
        <path class="cls-1" d="M767.34981,1129.74532c-3.6015,3.00331-3.64102,8.94086-1.9109,12.48413,2.16153,4.42679,6.05486,4.12747,10.80409,2.75397-1.63911,6.20607-10.26955,7.52153-14.21087,3.01977-4.85341-5.54355-3.51164-14.41764,1.69309-19.15461,3.03161-2.75915,7.64586-3.40355,10.98591-1.82561,1.0054.47498,1.63606,3.25717.97752,4.00487-2.44887,2.78045-5.96078-3.2656-8.33885-1.28252Z"/>
        <path class="cls-1" d="M1201.07363,1150.12881c1.02013-2.55121,2.31754-5.145,2.31535-6.81426l-.01135-8.65051c-.00199-1.5161-1.13292-3.61804-2.49321-6.39827l7.91944-1.66565.02547,19.21063,3.32531,3.99209-11.081.32597Z"/>
        <path class="cls-1" d="M711.66117,1149.94423l-11.09799-.02143c1.26805-1.96619,2.91945-3.55047,2.92604-4.36804l.10568-13.10484c.00689-.85422-1.61844-2.51388-2.91092-4.33202l8.43071-1.16317-.06853,15.32294c-.01052,2.35301.87941,3.83057,2.61501,7.66655Z"/>
        <path class="cls-1" d="M756.74354,1149.98973l-11.06554.05185,2.99118-3.83998.1542-13.86053-2.66301-4.5548,8.13731-.95249-.0439,16.5195c-.00371,1.3958.8592,3.00361,2.48977,6.63644Z"/>
        <path class="cls-1" d="M708.75195,1119.1643c.08661,1.02608-1.33821,3.29405-2.35935,3.44925-1.02156.15527-3.18834-1.4855-3.36694-2.50318-.18184-1.03611.00746-3.33074.49875-3.93079.61393-.74985,2.41671-.88274,3.49952-.77583,1.01509.10022,1.59666,2.20412,1.72803,3.76055Z"/>
        <path class="cls-1" d="M1207.18895,1122.27045c-.83258.60737-3.3647-.258-3.89629-1.14135-.53188-.88382-.81838-2.9528-.50134-3.93341.36989-1.14406,3.47096-2.16971,4.53949-1.53793,1.97146,1.16565,1.52659,5.39553-.14187,6.61268Z"/>
        <path class="cls-1" d="M752.6022,1122.15494c-1.75283.49635-4.0533-1.72524-4.15962-2.87594-.1142-1.236,1.1537-4.05595,2.45214-3.97238,1.58136.10177,3.08412,1.27074,3.29059,2.23868.21035.9861-.51825,4.30811-1.58312,4.60965Z"/>
        <path d="M889.9159,1145.60885c-2.85072,1.76924-5.46375.76321-6.76093-2.06905-1.82546-3.98571-1.97423-13.80381,3.19082-14.9112.97244-.20849,3.3162,1.72999,3.33405,2.80184l.23606,14.17841Z"/>
        <path d="M1065.48169,1142.71372c.03397,1.14218-1.39893,3.65225-2.26694,3.9223-1.04181.32412-3.30841-.72734-4.02632-1.79967-2.87985-4.30158-2.5276-14.12075,2.35642-16.19563.77411-.32886,3.54159.78295,3.56661,1.62429l.37024,12.44872Z"/>
        <path d="M676.28169,1143.00262c.09876,1.1265-1.57039,3.54292-2.63958,3.52053-1.06905-.02238-2.96895-2.30751-2.78681-3.42813.45145-2.77761,2.98234-4.29777,5.03033-4.60994l.39606,4.51753Z"/>
        <path d="M1223.48114,1128.38087c5.8246-.16741,6.64877,18.1933,1.9108,19.89772-6.61958,2.3813-7.60967-19.73392-1.9108-19.89772Z"/>
        <path d="M935.55827,1139.83757c-.05773,2.23576-.21663,5.14929-.80769,6.07934-.66979,1.05395-3.86904.07428-4.26618-1.06922-.45471-1.30926.38059-3.70781,1.57754-4.66553,1.15856-.927,3.52419-1.4237,3.49633-.34459Z"/>
        <path d="M866.18022,1142.6205c.22447,1.10655-.80866,3.51907-1.64057,3.7908-1.04142.34017-3.66179-1.20351-3.78779-2.50182-.21941-2.26078,1.93856-4.93942,4.5756-5.49272l.85276,4.20374Z"/>
        <path d="M1087.95229,1134.42168l-6.46278-.01653c1.03234-2.9404,1.51932-3.82816,3.53508-6.06539,2.16635,2.07065,2.40723,2.79935,2.9277,6.08193Z"/>
        <circle cx="969.22141" cy="1132.1223" r="3.09762"/>
      </g>
    </g>
  </g>
  <rect class="cls-2" x="547.01064" y="871.08511" width="784.47872" height="285.84043"/>
  <g>
    <g>
      <path d="M694.66895,943.24414c-5.8999-18.87988-14.16016-40.41504-41.2998-40.41504-17.10986,0-28.31982,12.0957-28.31982,28.61523,0,16.22461,10.91504,25.95996,36.87451,38.93945,31.56494,15.63477,51.625,30.97461,51.625,60.17969,0,34.80957-28.91016,60.17969-71.09473,60.17969-18.87988,0-35.69482-5.01465-49.55957-9.14453-1.77002-6.78516-6.78516-37.46484-8.8501-51.33008l11.50488-2.65527c5.8999,18.58496,22.41992,50.74023,51.32959,50.74023,17.99512,0,28.91016-11.20996,28.91016-30.08984,0-17.11035-10.62012-27.13965-35.3999-40.41504-30.67969-16.51953-50.73975-31.26953-50.73975-61.94922,0-30.97461,24.18994-55.45996,68.43945-55.45996,20.35498,0,35.69482,4.4248,42.18506,5.31055,1.17969,10.91406,3.24463,26.25391,5.60498,44.83887l-11.20996,2.65527Z"/>
      <path d="M935.09277,1005.48926c-16.81494,2.94922-18.87988,4.12988-18.87988,24.18945v22.71484c0,10.62012.29492,20.64941,1.77002,28.61523-15.04492,2.6543-47.49463,9.73438-71.38965,9.73438-69.32422,0-109.14893-42.18457-109.14893-100.59375,0-66.375,53.98438-99.70996,116.81885-99.70996,23.89502,0,49.85498,5.90039,59.58984,6.78516.58984,12.97949,2.9502,35.39941,5.01514,51.625l-11.50488,2.06445c-7.08008-25.0752-17.99512-37.75977-36.28516-43.9541-6.78467-2.36035-17.69971-3.54004-25.07471-3.54004-35.69482,0-62.53955,30.97461-62.53955,81.71387,0,51.91992,18.29004,92.9248,66.66943,92.9248,5.8999,0,13.56982-.88477,18.87988-4.12988,4.42529-2.65527,6.78516-7.66992,6.78516-16.81543v-25.95996c0-20.64941-4.12988-22.71484-28.90967-25.66406v-10.91504h88.2041v10.91504Z"/>
      <path d="M1070.49512,943.24414c-5.90039-18.87988-14.16016-40.41504-41.2998-40.41504-17.10938,0-28.31934,12.0957-28.31934,28.61523,0,16.22461,10.91504,25.95996,36.87402,38.93945,31.56543,15.63477,51.625,30.97461,51.625,60.17969,0,34.80957-28.91016,60.17969-71.09473,60.17969-18.87988,0-35.69434-5.01465-49.55957-9.14453-1.76953-6.78516-6.78516-37.46484-8.84961-51.33008l11.50488-2.65527c5.89941,18.58496,22.41992,50.74023,51.3291,50.74023,17.99512,0,28.91016-11.20996,28.91016-30.08984,0-17.11035-10.62012-27.13965-35.39941-40.41504-30.67969-16.51953-50.74023-31.26953-50.74023-61.94922,0-30.97461,24.19043-55.45996,68.43945-55.45996,20.35547,0,35.69531,4.4248,42.18457,5.31055,1.18066,10.91406,3.24512,26.25391,5.60547,44.83887l-11.20996,2.65527Z"/>
      <path d="M1312.9834,905.48438c-18.87988,1.77051-23.89453,7.375-25.07422,17.99512-.88574,8.84961-1.47559,18.87988-1.47559,39.5293v38.64551c0,25.36914-4.12988,51.03418-20.94434,68.73438-13.57031,14.16016-34.51562,20.35449-55.45996,20.35449-19.46973,0-38.93945-4.12988-52.80469-15.33984-17.11035-12.97949-25.37012-30.97461-25.37012-64.01465v-74.63477c0-27.13965-2.65527-29.2041-25.07422-31.26953v-10.91504h91.1543v10.91504c-22.125,2.06543-24.78027,4.12988-24.78027,31.26953v78.46973c0,33.04004,16.22461,54.87012,47.79004,54.87012,35.10449,0,50.44434-25.95996,50.44434-70.20996v-36.875c0-20.35449-.88477-30.97461-1.47461-39.82422-1.18066-13.57031-9.44043-16.52051-30.08984-17.7002v-10.91504h73.15918v10.91504Z"/>
    </g>
    <g>
      <path class="cls-1" d="M694.66895,943.24414c-5.8999-18.87988-14.16016-40.41504-41.2998-40.41504-17.10986,0-28.31982,12.0957-28.31982,28.61523,0,16.22461,10.91504,25.95996,36.87451,38.93945,31.56494,15.63477,51.625,30.97461,51.625,60.17969,0,34.80957-28.91016,60.17969-71.09473,60.17969-18.87988,0-35.69482-5.01465-49.55957-9.14453-1.77002-6.78516-6.78516-37.46484-8.8501-51.33008l11.50488-2.65527c5.8999,18.58496,22.41992,50.74023,51.32959,50.74023,17.99512,0,28.91016-11.20996,28.91016-30.08984,0-17.11035-10.62012-27.13965-35.3999-40.41504-30.67969-16.51953-50.73975-31.26953-50.73975-61.94922,0-30.97461,24.18994-55.45996,68.43945-55.45996,20.35498,0,35.69482,4.4248,42.18506,5.31055,1.17969,10.91406,3.24463,26.25391,5.60498,44.83887l-11.20996,2.65527Z"/>
      <path class="cls-1" d="M935.09277,1005.48926c-16.81494,2.94922-18.87988,4.12988-18.87988,24.18945v22.71484c0,10.62012.29492,20.64941,1.77002,28.61523-15.04492,2.6543-47.49463,9.73438-71.38965,9.73438-69.32422,0-109.14893-42.18457-109.14893-100.59375,0-66.375,53.98438-99.70996,116.81885-99.70996,23.89502,0,49.85498,5.90039,59.58984,6.78516.58984,12.97949,2.9502,35.39941,5.01514,51.625l-11.50488,2.06445c-7.08008-25.0752-17.99512-37.75977-36.28516-43.9541-6.78467-2.36035-17.69971-3.54004-25.07471-3.54004-35.69482,0-62.53955,30.97461-62.53955,81.71387,0,51.91992,18.29004,92.9248,66.66943,92.9248,5.8999,0,13.56982-.88477,18.87988-4.12988,4.42529-2.65527,6.78516-7.66992,6.78516-16.81543v-25.95996c0-20.64941-4.12988-22.71484-28.90967-25.66406v-10.91504h88.2041v10.91504Z"/>
      <path class="cls-1" d="M1070.49512,943.24414c-5.90039-18.87988-14.16016-40.41504-41.2998-40.41504-17.10938,0-28.31934,12.0957-28.31934,28.61523,0,16.22461,10.91504,25.95996,36.87402,38.93945,31.56543,15.63477,51.625,30.97461,51.625,60.17969,0,34.80957-28.91016,60.17969-71.09473,60.17969-18.87988,0-35.69434-5.01465-49.55957-9.14453-1.76953-6.78516-6.78516-37.46484-8.84961-51.33008l11.50488-2.65527c5.89941,18.58496,22.41992,50.74023,51.3291,50.74023,17.99512,0,28.91016-11.20996,28.91016-30.08984,0-17.11035-10.62012-27.13965-35.39941-40.41504-30.67969-16.51953-50.74023-31.26953-50.74023-61.94922,0-30.97461,24.19043-55.45996,68.43945-55.45996,20.35547,0,35.69531,4.4248,42.18457,5.31055,1.18066,10.91406,3.24512,26.25391,5.60547,44.83887l-11.20996,2.65527Z"/>
      <path class="cls-1" d="M1312.9834,905.48438c-18.87988,1.77051-23.89453,7.375-25.07422,17.99512-.88574,8.84961-1.47559,18.87988-1.47559,39.5293v38.64551c0,25.36914-4.12988,51.03418-20.94434,68.73438-13.57031,14.16016-34.51562,20.35449-55.45996,20.35449-19.46973,0-38.93945-4.12988-52.80469-15.33984-17.11035-12.97949-25.37012-30.97461-25.37012-64.01465v-74.63477c0-27.13965-2.65527-29.2041-25.07422-31.26953v-10.91504h91.1543v10.91504c-22.125,2.06543-24.78027,4.12988-24.78027,31.26953v78.46973c0,33.04004,16.22461,54.87012,47.79004,54.87012,35.10449,0,50.44434-25.95996,50.44434-70.20996v-36.875c0-20.35449-.88477-30.97461-1.47461-39.82422-1.18066-13.57031-9.44043-16.52051-30.08984-17.7002v-10.91504h73.15918v10.91504Z"/>
    </g>
  </g>
  <g>
    <path class="cls-1" d="M645.47314,1127.46094c-.88525-2.83203-2.12402-6.06152-6.19531-6.06152-2.56641,0-4.24805,1.81348-4.24805,4.29199,0,2.43359,1.63721,3.89355,5.53125,5.84082,4.73486,2.3457,7.74414,4.64648,7.74414,9.02734,0,5.22168-4.33691,9.02734-10.66455,9.02734-2.83203,0-5.354-.75293-7.43408-1.37207-.26562-1.01758-1.01758-5.62012-1.32764-7.69922l1.72607-.39844c.88477,2.78711,3.36279,7.61133,7.69922,7.61133,2.69971,0,4.33691-1.68164,4.33691-4.51367,0-2.56641-1.59326-4.07129-5.31006-6.0625-4.60205-2.47852-7.61133-4.69043-7.61133-9.29297,0-4.64648,3.62842-8.31836,10.26611-8.31836,3.05322,0,5.35449.66309,6.32812.7959.17676,1.6377.48633,3.93848.84082,6.72656l-1.68164.39746Z"/>
    <path class="cls-1" d="M660.95996,1148.9668c-.75195.35449-1.45996.4873-1.77002.4873-3.40723,0-5.44238-1.59277-5.44238-5.62012v-12.3457h-2.83203l-.26562-.53125,1.2832-1.68164h1.81445v-3.67285c1.50439-1.06152,3.67236-2.47754,5.22119-3.54004l.5752.35449c-.04395,1.19434-.13232,3.54004-.08838,6.8584h4.42529c.39795.44238.22119,1.81445-.354,2.21289h-4.07129v10.84082c0,3.45215,1.41602,3.85059,2.25684,3.85059.75244,0,1.32764-.13281,2.12402-.44336l.44238,1.59375-3.31885,1.63672Z"/>
    <path class="cls-1" d="M680.74072,1149.4541c-1.19482,0-2.16846-.39844-2.74365-.92969-.61963-.53125-.9292-1.15039-1.15088-1.63672-1.68115,1.10547-3.84961,2.56641-4.69043,2.56641-3.80566,0-6.01807-2.96484-6.01807-5.70898,0-2.34473,1.06201-3.40723,3.40723-4.33594,2.61084-.97363,6.10693-2.03613,7.12451-2.9209v-1.94727c0-2.30078-.84082-3.58398-2.74365-3.58398-.75195,0-1.37158.35449-1.77002.88477-.53076.70801-.70801,1.59375-1.06201,2.9209-.30957,1.19434-1.01758,1.50488-1.90283,1.50488-1.15039,0-2.61035-1.0625-2.61035-2.30176,0-.7959.53076-1.37109,1.54834-2.0791,1.9917-1.32812,4.60205-2.61133,7.08008-3.14258,1.77002,0,3.2749.39844,4.55811,1.28418,1.90283,1.32715,2.43359,3.18555,2.43359,5.44238v7.65527c0,2.12402.70801,2.65527,1.41602,2.65527.44238,0,.88525-.13281,1.37207-.35449l.48633,1.50488-4.73438,2.52246ZM676.66943,1138.30273c-.79639.44238-1.59277.88477-2.47803,1.37207-1.37158.70801-2.16846,1.50391-2.16846,3.00879,0,2.47754,1.72607,3.36328,2.69922,3.36328.61963,0,1.23926-.04492,1.94727-.70801v-7.03613Z"/>
    <path class="cls-1" d="M695.87354,1148.9668c-.75195.35449-1.45996.4873-1.77002.4873-3.40723,0-5.44287-1.59277-5.44287-5.62012v-12.3457h-2.83203l-.26514-.53125,1.2832-1.68164h1.81396v-3.67285c1.50488-1.06152,3.67285-2.47754,5.22168-3.54004l.5752.35449c-.04395,1.19434-.13281,3.54004-.08838,6.8584h4.42529c.39795.44238.22119,1.81445-.354,2.21289h-4.07129v10.84082c0,3.45215,1.41602,3.85059,2.25684,3.85059.75244,0,1.32764-.13281,2.12402-.44336l.44238,1.59375-3.31885,1.63672Z"/>
    <path class="cls-1" d="M700.82959,1148.92285v-1.50488c2.38965-.30957,2.65527-.48633,2.65527-3.62793v-8.62891c0-2.96484-.22119-3.1416-2.30078-3.40723v-1.46094c2.7876-.30957,5.5752-.88477,8.00928-1.59277v15.08984c0,3.00879.17676,3.31836,2.74316,3.62793v1.50488h-11.10693ZM706.00732,1126.00098c-1.68164,0-3.18604-1.41602-3.18604-3.1416,0-1.81445,1.50439-3.1416,3.22998-3.1416,1.77002,0,3.18604,1.32715,3.18604,3.1416,0,1.72559-1.41602,3.1416-3.22998,3.1416Z"/>
    <path class="cls-1" d="M726.40625,1135.02832c-1.15039-3.09766-2.65479-4.51367-4.73486-4.51367-1.23877,0-2.34521.88477-2.34521,2.3457,0,1.54785,1.10645,2.38867,3.40771,3.40723,3.58398,1.59277,6.01758,3.09766,6.01758,6.59277,0,4.4248-4.20361,6.59375-8.05322,6.59375-2.30127,0-4.69092-.88574-5.62012-1.32812-.17676-1.01758-.5752-4.07031-.70801-5.61914l1.46045-.26562c.9292,2.78809,2.74365,5.39844,5.61963,5.39844,1.68164,0,2.52246-1.01758,2.52246-2.30078,0-1.37207-.66357-2.38965-3.40723-3.71777-2.92041-1.41602-5.75244-2.96484-5.75244-6.63672,0-3.49609,2.87598-6.24023,7.56641-6.24023,2.12402,0,3.76172.44336,4.7793.66406.13281,1.19531.53125,4.02734.70801,5.22168l-1.46045.39844Z"/>
    <path class="cls-1" d="M740.30029,1148.9668c-.75195.35449-1.45996.4873-1.77002.4873-3.40723,0-5.44287-1.59277-5.44287-5.62012v-12.3457h-2.83203l-.26514-.53125,1.2832-1.68164h1.81396v-3.67285c1.50488-1.06152,3.67285-2.47754,5.22168-3.54004l.5752.35449c-.04395,1.19434-.13281,3.54004-.08838,6.8584h4.42529c.39795.44238.22119,1.81445-.354,2.21289h-4.07129v10.84082c0,3.45215,1.41602,3.85059,2.25684,3.85059.75244,0,1.32764-.13281,2.12402-.44336l.44238,1.59375-3.31885,1.63672Z"/>
    <path class="cls-1" d="M745.25732,1148.92285v-1.50488c2.38916-.30957,2.65479-.48633,2.65479-3.62793v-8.62891c0-2.96484-.22119-3.1416-2.30127-3.40723v-1.46094c2.78809-.30957,5.57568-.88477,8.00977-1.59277v15.08984c0,3.00879.17676,3.31836,2.74316,3.62793v1.50488h-11.10645ZM750.43457,1126.00098c-1.68164,0-3.18604-1.41602-3.18604-3.1416,0-1.81445,1.50439-3.1416,3.22998-3.1416,1.77002,0,3.18604,1.32715,3.18604,3.1416,0,1.72559-1.41602,3.1416-3.22998,3.1416Z"/>
    <path class="cls-1" d="M776.09912,1144.63086c-2.03564,2.91992-5.00049,4.82324-7.69971,4.82324-6.10645,0-9.69092-4.60254-9.69092-9.51367,0-3.27539,1.68164-6.37207,4.51367-8.45215,2.92041-2.16797,5.7085-2.74414,7.69971-2.74414,1.68164,0,3.09766.4873,3.89404,1.0625.61963.44238.84082.97363.84082,1.6377-.04443,1.23828-1.2832,2.47754-1.99121,2.47754-.31006,0-.61963-.13281-.97363-.48633-1.90283-1.59375-3.40723-2.30176-4.60205-2.30176-1.72607,0-3.80566,1.68164-3.80566,6.46094,0,5.88574,4.29248,7.78809,6.19531,7.78809,1.81396,0,3.1416-.48633,4.73486-1.8584l.88477,1.10645Z"/>
    <path class="cls-1" d="M790.39111,1135.02832c-1.15039-3.09766-2.65479-4.51367-4.73438-4.51367-1.23926,0-2.3457.88477-2.3457,2.3457,0,1.54785,1.10645,2.38867,3.40723,3.40723,3.58447,1.59277,6.01855,3.09766,6.01855,6.59277,0,4.4248-4.2041,6.59375-8.05371,6.59375-2.30127,0-4.69043-.88574-5.62012-1.32812-.17676-1.01758-.5752-4.07031-.70801-5.61914l1.46045-.26562c.9292,2.78809,2.74365,5.39844,5.61963,5.39844,1.68164,0,2.52246-1.01758,2.52246-2.30078,0-1.37207-.66357-2.38965-3.40723-3.71777-2.92041-1.41602-5.75244-2.96484-5.75244-6.63672,0-3.49609,2.87598-6.24023,7.56689-6.24023,2.12402,0,3.76123.44336,4.77881.66406.13281,1.19531.53076,4.02734.70801,5.22168l-1.46045.39844Z"/>
    <path class="cls-1" d="M835.30469,1136.79785c-2.52246.44238-2.83203.62012-2.83203,3.62891v3.40723c0,1.59277.04443,3.09766.26562,4.29199-2.25684.39844-7.12451,1.46094-10.7085,1.46094-10.39893,0-16.37305-6.32812-16.37305-15.08984,0-9.95605,8.09814-14.95605,17.52344-14.95605,3.58398,0,7.47803.88477,8.93848,1.01758.08838,1.94629.44238,5.30957.75244,7.74316l-1.72607.31055c-1.06201-3.76172-2.69922-5.66406-5.44287-6.59375-1.01758-.35449-2.65479-.53125-3.76123-.53125-5.354,0-9.38086,4.64648-9.38086,12.25781,0,7.78809,2.74316,13.93848,10.00049,13.93848.88525,0,2.03564-.13281,2.83203-.61914.66357-.39844,1.01758-1.15039,1.01758-2.52246v-3.89355c0-3.09766-.61914-3.4082-4.33643-3.85059v-1.63672h13.23096v1.63672Z"/>
    <path class="cls-1" d="M849.41992,1148.92285h-11.68213v-1.50488c2.34521-.26562,2.56641-.48633,2.56641-3.1416v-9.69043c0-2.21289-.17676-2.43359-2.25684-2.87695v-1.37109c2.74365-.30957,5.22168-.84082,7.96533-1.68164v4.7793c1.99121-3.05371,3.58398-4.69141,5.39844-4.69141,1.63721,0,2.87646,1.10645,2.87646,2.65527,0,2.16895-1.54883,3.40723-2.25684,3.76172-.61963.26562-1.06201.04395-1.37207-.22168-.75195-.61914-1.32715-1.32715-2.07959-1.32715-.66357,0-1.77002.5752-2.56641,2.25684v8.40723c0,2.65527.30957,2.78809,3.40723,3.1416v1.50488Z"/>
    <path class="cls-1" d="M870.52686,1149.4541c-1.19434,0-2.16797-.39844-2.74316-.92969-.61963-.53125-.9292-1.15039-1.15039-1.63672-1.68164,1.10547-3.8501,2.56641-4.69092,2.56641-3.80518,0-6.01807-2.96484-6.01807-5.70898,0-2.34473,1.06201-3.40723,3.40723-4.33594,2.61084-.97363,6.10693-2.03613,7.12451-2.9209v-1.94727c0-2.30078-.84082-3.58398-2.74365-3.58398-.75195,0-1.37158.35449-1.77002.88477-.53076.70801-.70801,1.59375-1.06201,2.9209-.30957,1.19434-1.01758,1.50488-1.90283,1.50488-1.15039,0-2.61084-1.0625-2.61084-2.30176,0-.7959.53125-1.37109,1.54883-2.0791,1.99121-1.32812,4.60205-2.61133,7.08008-3.14258,1.77002,0,3.2749.39844,4.55811,1.28418,1.90283,1.32715,2.43359,3.18555,2.43359,5.44238v7.65527c0,2.12402.70801,2.65527,1.41602,2.65527.44238,0,.88525-.13281,1.37158-.35449l.48682,1.50488-4.73486,2.52246ZM866.45605,1138.30273c-.79639.44238-1.59326.88477-2.47803,1.37207-1.37158.70801-2.16846,1.50391-2.16846,3.00879,0,2.47754,1.72607,3.36328,2.69971,3.36328.61914,0,1.23877-.04492,1.94678-.70801v-7.03613Z"/>
    <path class="cls-1" d="M899.51074,1147.77246c-1.06201.17676-5.1333.70801-8.67334,1.72559v-2.56641c-.79639.53125-1.90234,1.19434-2.69922,1.72559-1.06201.66406-1.72559.79688-2.2124.79688-3.76123,0-9.11572-3.23047-9.11572-9.82422,0-6.06152,5.35449-10.88574,12.25781-10.88574.30957,0,1.06152,0,1.76953.13281v-5.08789c0-2.3457-.22119-2.56738-2.96436-2.9209v-1.45996c2.92041-.31055,6.50439-.88574,8.71729-1.50488v25.44434c0,2.38867.26562,2.61035,1.94678,2.83203l.97363.13281v1.45996ZM890.8374,1132.94824c-.48633-1.23926-1.63721-2.21191-3.31836-2.21191-1.37207,0-4.33691.92871-4.33691,7.34473,0,5.79688,3.23047,7.9209,5.22168,7.96582.79639,0,1.46045-.13281,2.43359-.75293v-12.3457Z"/>
    <path class="cls-1" d="M923.62646,1147.86133c-2.65527.35352-5.4873.92871-8.40771,1.59277v-3.00879c-1.81445,1.50391-3.67285,3.00879-6.10645,3.00879-3.71729,0-5.79688-2.38965-5.79688-6.32812v-9.16016c0-2.03516-.26562-2.25684-1.46045-2.56641l-.9292-.26562v-1.41602c2.25684-.08789,5.75244-.39746,8.23047-.75195-.08838,1.8584-.13232,4.15918-.13232,6.68164v6.46094c0,2.87598,1.45996,3.84961,3.00879,3.84961,1.23926,0,2.2124-.26562,3.18604-1.2832v-10.66406c0-2.03613-.22119-2.38965-1.46045-2.61133l-1.32715-.26562v-1.41602c2.56641-.08789,6.32764-.39746,8.54004-.75195v14.42578c0,2.30078.26562,2.78809,1.68164,2.9209l.97363.08789v1.46094Z"/>
    <path class="cls-1" d="M940.48584,1149.4541c-1.19482,0-2.16846-.39844-2.74365-.92969-.61963-.53125-.9292-1.15039-1.15088-1.63672-1.68115,1.10547-3.84961,2.56641-4.69043,2.56641-3.80566,0-6.01807-2.96484-6.01807-5.70898,0-2.34473,1.06201-3.40723,3.40723-4.33594,2.61084-.97363,6.10693-2.03613,7.12451-2.9209v-1.94727c0-2.30078-.84082-3.58398-2.74365-3.58398-.75195,0-1.37158.35449-1.77002.88477-.53076.70801-.70801,1.59375-1.06201,2.9209-.30957,1.19434-1.01758,1.50488-1.90283,1.50488-1.15039,0-2.61035-1.0625-2.61035-2.30176,0-.7959.53076-1.37109,1.54834-2.0791,1.9917-1.32812,4.60205-2.61133,7.08008-3.14258,1.77002,0,3.2749.39844,4.55811,1.28418,1.90283,1.32715,2.43359,3.18555,2.43359,5.44238v7.65527c0,2.12402.70801,2.65527,1.41602,2.65527.44238,0,.88525-.13281,1.37158-.35449l.48633,1.50488-4.73389,2.52246ZM936.41455,1138.30273c-.79639.44238-1.59277.88477-2.47803,1.37207-1.37158.70801-2.16846,1.50391-2.16846,3.00879,0,2.47754,1.72607,3.36328,2.69922,3.36328.61963,0,1.23926-.04492,1.94727-.70801v-7.03613Z"/>
    <path class="cls-1" d="M955.61816,1148.9668c-.75195.35449-1.45996.4873-1.76953.4873-3.40723,0-5.44336-1.59277-5.44336-5.62012v-12.3457h-2.83203l-.26465-.53125,1.2832-1.68164h1.81348v-3.67285c1.50488-1.06152,3.67285-2.47754,5.22168-3.54004l.5752.35449c-.04395,1.19434-.13281,3.54004-.08789,6.8584h4.4248c.39844.44238.22168,1.81445-.35352,2.21289h-4.07129v10.84082c0,3.45215,1.41602,3.85059,2.25684,3.85059.75195,0,1.32715-.13281,2.12402-.44336l.44238,1.59375-3.31934,1.63672Z"/>
    <path class="cls-1" d="M977.61133,1144.58594c-2.69922,3.98242-6.23926,4.86816-8.09766,4.86816-5.92969,0-9.29297-4.38086-9.29297-9.64648,0-3.09766,1.45996-6.15137,3.31836-7.96582,1.99121-1.99121,4.46973-3.09766,6.90332-3.09766,4.33691,0,7.3457,3.58496,7.30176,7.21289,0,.75293-.04492,1.50488-.5752,1.6377-.84082.22168-7.08008.53125-11.37305.70801.17773,4.69043,2.78809,7.08008,5.97363,7.08008,1.72656,0,3.45215-.61914,5.04492-1.99121l.79688,1.19434ZM969.55762,1130.55859c-1.77051,0-3.27441,2.08008-3.54004,5.57617,1.81445-.04492,3.49609-.08887,5.35449-.13281.61914-.04492.88477-.13281.88477-.88477.04395-2.21289-.97363-4.55859-2.69922-4.55859Z"/>
    <path class="cls-1" d="M1006.90332,1127.46094c-.88477-2.83203-2.12402-6.06152-6.19434-6.06152-2.56738,0-4.24805,1.81348-4.24805,4.29199,0,2.43359,1.63672,3.89355,5.53125,5.84082,4.73438,2.3457,7.74316,4.64648,7.74316,9.02734,0,5.22168-4.33594,9.02734-10.66406,9.02734-2.83203,0-5.35449-.75293-7.43359-1.37207-.26562-1.01758-1.01758-5.62012-1.32812-7.69922l1.72656-.39844c.88477,2.78711,3.3623,7.61133,7.69922,7.61133,2.69922,0,4.33594-1.68164,4.33594-4.51367,0-2.56641-1.59277-4.07129-5.30957-6.0625-4.60156-2.47852-7.61133-4.69043-7.61133-9.29297,0-4.64648,3.62891-8.31836,10.2666-8.31836,3.05273,0,5.35352.66309,6.32715.7959.17773,1.6377.4873,3.93848.84082,6.72656l-1.68164.39746Z"/>
    <path class="cls-1" d="M1022.39062,1148.9668c-.75195.35449-1.45996.4873-1.76953.4873-3.40723,0-5.44336-1.59277-5.44336-5.62012v-12.3457h-2.83203l-.26562-.53125,1.2832-1.68164h1.81445v-3.67285c1.50488-1.06152,3.67285-2.47754,5.22168-3.54004l.5752.35449c-.04395,1.19434-.13281,3.54004-.08789,6.8584h4.4248c.39844.44238.2207,1.81445-.35449,2.21289h-4.07031v10.84082c0,3.45215,1.41602,3.85059,2.25684,3.85059.75195,0,1.32715-.13281,2.12305-.44336l.44336,1.59375-3.31934,1.63672Z"/>
    <path class="cls-1" d="M1049.42871,1147.86133c-2.65527.35352-5.4873.92871-8.4082,1.59277v-3.00879c-1.81348,1.50391-3.67188,3.00879-6.10645,3.00879-3.7168,0-5.79688-2.38965-5.79688-6.32812v-9.16016c0-2.03516-.26465-2.25684-1.45996-2.56641l-.92871-.26562v-1.41602c2.25684-.08789,5.75195-.39746,8.23047-.75195-.08887,1.8584-.13281,4.15918-.13281,6.68164v6.46094c0,2.87598,1.45996,3.84961,3.00879,3.84961,1.23926,0,2.21289-.26562,3.18555-1.2832v-10.66406c0-2.03613-.2207-2.38965-1.45996-2.61133l-1.32715-.26562v-1.41602c2.56641-.08789,6.32812-.39746,8.54004-.75195v14.42578c0,2.30078.26562,2.78809,1.68164,2.9209l.97363.08789v1.46094Z"/>
    <path class="cls-1" d="M1074.51758,1147.77246c-1.06152.17676-5.13281.70801-8.67285,1.72559v-2.56641c-.79688.53125-1.90332,1.19434-2.69922,1.72559-1.0625.66406-1.72656.79688-2.21289.79688-3.76172,0-9.11523-3.23047-9.11523-9.82422,0-6.06152,5.35352-10.88574,12.25684-10.88574.30957,0,1.0625,0,1.77051.13281v-5.08789c0-2.3457-.22168-2.56738-2.96484-2.9209v-1.45996c2.91992-.31055,6.50488-.88574,8.7168-1.50488v25.44434c0,2.38867.26562,2.61035,1.94727,2.83203l.97363.13281v1.45996ZM1065.84473,1132.94824c-.4873-1.23926-1.6377-2.21191-3.31934-2.21191-1.37109,0-4.33594.92871-4.33594,7.34473,0,5.79688,3.22949,7.9209,5.22168,7.96582.7959,0,1.45996-.13281,2.43359-.75293v-12.3457Z"/>
    <path class="cls-1" d="M1094.03223,1144.58594c-2.7002,3.98242-6.24023,4.86816-8.09863,4.86816-5.92969,0-9.29199-4.38086-9.29199-9.64648,0-3.09766,1.45996-6.15137,3.31836-7.96582,1.99121-1.99121,4.46973-3.09766,6.90332-3.09766,4.33691,0,7.3457,3.58496,7.30078,7.21289,0,.75293-.04395,1.50488-.5752,1.6377-.84082.22168-7.08008.53125-11.37207.70801.17676,4.69043,2.78809,7.08008,5.97363,7.08008,1.72559,0,3.45215-.61914,5.04492-1.99121l.79688,1.19434ZM1085.97852,1130.55859c-1.77051,0-3.27441,2.08008-3.54004,5.57617,1.81348-.04492,3.49512-.08887,5.35352-.13281.62012-.04492.88574-.13281.88574-.88477.04395-2.21289-.97363-4.55859-2.69922-4.55859Z"/>
    <path class="cls-1" d="M1109.51758,1148.92285v-1.50488c1.8584-.26562,1.99121-.44238,1.99121-3.49512v-7.56738c0-3.1416-1.54883-4.11523-3.09766-4.11523-1.15039,0-2.12402.44238-3.31836,1.32812v10.70801c0,2.69922.17676,2.87598,1.99121,3.1416v1.50488h-10.2666v-1.50488c2.30176-.39746,2.56641-.44238,2.56641-3.31836v-9.2041c0-2.65527-.35352-2.78809-2.30078-3.18652v-1.41602c2.56641-.30957,5.62012-.88477,8.09766-1.68066-.04395.61914-.08789,2.16797-.08789,3.18555.88477-.61914,1.81445-1.2832,2.83203-1.90234,1.32715-.79688,2.16797-1.15137,3.45117-1.15137,3.58398,0,5.84082,2.61133,5.84082,7.125v8.36328c0,2.74316.26562,2.87598,2.38965,3.18555v1.50488h-10.08887Z"/>
    <path class="cls-1" d="M1130.97852,1148.9668c-.75195.35449-1.45996.4873-1.76953.4873-3.40723,0-5.44336-1.59277-5.44336-5.62012v-12.3457h-2.83203l-.26562-.53125,1.2832-1.68164h1.81445v-3.67285c1.50488-1.06152,3.67285-2.47754,5.22168-3.54004l.5752.35449c-.04395,1.19434-.13281,3.54004-.08789,6.8584h4.4248c.39844.44238.2207,1.81445-.35449,2.21289h-4.07031v10.84082c0,3.45215,1.41602,3.85059,2.25684,3.85059.75195,0,1.32715-.13281,2.12305-.44336l.44336,1.59375-3.31934,1.63672Z"/>
    <path class="cls-1" d="M1176.5127,1121.79688c-2.83203.26562-3.58496,1.10645-3.76172,2.69922-.13281,1.32812-.2207,2.83203-.2207,5.92969v5.79688c0,3.80566-.62012,7.65527-3.14258,10.31055-2.03516,2.12402-5.17676,3.05371-8.31836,3.05371-2.9209,0-5.8418-.62012-7.9209-2.30176-2.56641-1.94629-3.80566-4.64551-3.80566-9.60156v-11.19531c0-4.07129-.39844-4.38086-3.76172-4.69141v-1.63672h13.67383v1.63672c-3.31934.31055-3.7168.62012-3.7168,4.69141v11.77051c0,4.95605,2.43359,8.23047,7.16797,8.23047,5.26562,0,7.56738-3.89453,7.56738-10.53223v-5.53125c0-3.05273-.13281-4.64551-.22168-5.97363-.17676-2.03516-1.41602-2.47754-4.51367-2.65527v-1.63672h10.97461v1.63672Z"/>
    <path class="cls-1" d="M1189.16699,1148.92285v-1.50488c1.8584-.26562,1.99121-.44238,1.99121-3.49512v-7.56738c0-3.1416-1.54883-4.11523-3.09766-4.11523-1.15039,0-2.12402.44238-3.31836,1.32812v10.70801c0,2.69922.17676,2.87598,1.99121,3.1416v1.50488h-10.2666v-1.50488c2.30176-.39746,2.56738-.44238,2.56738-3.31836v-9.2041c0-2.65527-.35449-2.78809-2.30176-3.18652v-1.41602c2.56641-.30957,5.62012-.88477,8.09766-1.68066-.04395.61914-.08789,2.16797-.08789,3.18555.88477-.61914,1.81445-1.2832,2.83203-1.90234,1.32715-.79688,2.16797-1.15137,3.45117-1.15137,3.58496,0,5.84082,2.61133,5.84082,7.125v8.36328c0,2.74316.26562,2.87598,2.38965,3.18555v1.50488h-10.08887Z"/>
    <path class="cls-1" d="M1201.55664,1148.92285v-1.50488c2.38965-.30957,2.65527-.48633,2.65527-3.62793v-8.62891c0-2.96484-.22168-3.1416-2.30176-3.40723v-1.46094c2.78809-.30957,5.57617-.88477,8.00977-1.59277v15.08984c0,3.00879.17676,3.31836,2.74316,3.62793v1.50488h-11.10645ZM1206.7334,1126.00098c-1.68164,0-3.18555-1.41602-3.18555-3.1416,0-1.81445,1.50391-3.1416,3.23047-3.1416,1.76953,0,3.18555,1.32715,3.18555,3.1416,0,1.72559-1.41602,3.1416-3.23047,3.1416Z"/>
    <path class="cls-1" d="M1225.67285,1128.74414c6.23926,0,10.17773,4.69141,10.17773,10.00098,0,7.12402-5.13281,10.70898-10.35449,10.70898-6.68164,0-10.4873-5.04492-10.4873-10.22168,0-6.77051,5.5752-10.48828,10.66406-10.48828ZM1225.1416,1130.51465c-1.90234,0-3.76074,1.99121-3.76074,7.43457,0,5.48633,1.81348,9.69043,4.60156,9.69043,1.68164,0,3.49609-1.15039,3.49609-7.61133,0-6.15039-1.59277-9.51367-4.33691-9.51367Z"/>
    <path class="cls-1" d="M1251.24902,1148.92285v-1.50488c1.8584-.26562,1.99121-.44238,1.99121-3.49512v-7.56738c0-3.1416-1.54883-4.11523-3.09766-4.11523-1.15039,0-2.12402.44238-3.31836,1.32812v10.70801c0,2.69922.17676,2.87598,1.99121,3.1416v1.50488h-10.2666v-1.50488c2.30176-.39746,2.56738-.44238,2.56738-3.31836v-9.2041c0-2.65527-.35449-2.78809-2.30176-3.18652v-1.41602c2.56641-.30957,5.62012-.88477,8.09766-1.68066-.04395.61914-.08789,2.16797-.08789,3.18555.88477-.61914,1.81445-1.2832,2.83203-1.90234,1.32715-.79688,2.16797-1.15137,3.45117-1.15137,3.58496,0,5.84082,2.61133,5.84082,7.125v8.36328c0,2.74316.26562,2.87598,2.38965,3.18555v1.50488h-10.08887Z"/>
  </g>
</svg>